<svg width="594" height="595" viewBox="0 0 594 595" fill="none" xmlns="http://www.w3.org/2000/svg">
<path d="M524.206 510.25C512.139 522.954 500.722 531.144 491.701 537.617C385.671 613.695 260.207 591.518 233.551 586.103C194.175 578.106 118.063 562.646 63.0365 497.937C-20.2233 400.035 -7.2585 245.793 57.3194 143.976C69.1293 125.352 131.525 21.9833 258.339 5.40736C335.083 -4.62568 424.546 15.6081 489.339 69.8854C625.324 183.82 615.654 413.983 524.206 510.25Z" fill="#E9F4EF"/>
<g opacity="0.3">
<path opacity="0.3" d="M189.303 67.9981C189.029 68.0657 188.744 68.0786 188.466 68.036C188.187 67.9935 187.919 67.8964 187.678 67.7503C187.436 67.6042 187.226 67.4119 187.059 67.1845C186.892 66.9571 186.772 66.699 186.704 66.425C186.152 64.1874 185.496 61.9414 184.753 59.7462C184.572 59.2134 184.607 58.6307 184.852 58.1236C185.096 57.6166 185.529 57.2257 186.059 57.0352L186.097 57.0225C186.364 56.9317 186.647 56.8945 186.928 56.9129C187.21 56.9313 187.485 57.005 187.738 57.1298C187.991 57.2546 188.217 57.4281 188.402 57.6403C188.588 57.8524 188.731 58.0991 188.821 58.3663C189.604 60.6782 190.307 63.0368 190.876 65.3997C191.003 65.9148 190.935 66.4587 190.684 66.9264C190.433 67.3942 190.019 67.7525 189.519 67.9323C189.449 67.9587 189.376 67.9807 189.303 67.9981ZM180.399 49.3162C179.363 47.2463 178.23 45.1977 177.028 43.2318C176.73 42.7457 176.637 42.1608 176.769 41.6061C176.902 41.0513 177.25 40.5719 177.736 40.2735C178.222 39.9751 178.807 39.8821 179.362 40.0148C179.917 40.1476 180.396 40.4953 180.694 40.9815C181.968 43.0514 183.153 45.2062 184.242 47.3843C184.368 47.6368 184.443 47.9116 184.463 48.1931C184.483 48.4746 184.448 48.7573 184.358 49.0251C184.269 49.2928 184.128 49.5403 183.943 49.7534C183.758 49.9666 183.533 50.1412 183.28 50.2673C183.204 50.3054 183.126 50.3387 183.047 50.3671C182.553 50.5456 182.01 50.5367 181.523 50.3423C181.035 50.1479 180.635 49.7813 180.399 49.312V49.3162ZM170.481 34.031C169.014 32.2456 167.451 30.5048 165.836 28.851C165.629 28.6514 165.465 28.4123 165.352 28.148C165.24 27.8836 165.181 27.5994 165.18 27.3121C165.18 27.0247 165.236 26.7402 165.347 26.4752C165.459 26.2102 165.622 25.9703 165.827 25.7694C166.033 25.5686 166.276 25.4111 166.544 25.3061C166.811 25.2011 167.097 25.1509 167.384 25.1583C167.672 25.1658 167.954 25.2307 168.216 25.3494C168.478 25.4681 168.713 25.638 168.908 25.8492C170.606 27.5879 172.256 29.4242 173.791 31.303C174.152 31.7431 174.324 32.3088 174.269 32.8756C174.213 33.4425 173.935 33.9643 173.495 34.3261C173.306 34.4824 173.09 34.6045 172.859 34.687C172.441 34.8358 171.987 34.8517 171.56 34.7323C171.132 34.6129 170.753 34.3643 170.472 34.0204L170.481 34.031ZM157.389 21.34C155.559 19.9262 153.646 18.5802 151.703 17.3277C151.466 17.1744 151.262 16.9758 151.102 16.7435C150.941 16.5112 150.829 16.2495 150.769 15.9735C150.71 15.6975 150.706 15.4126 150.757 15.135C150.808 14.8574 150.913 14.5925 151.067 14.3556C151.22 14.1186 151.418 13.9141 151.651 13.7539C151.883 13.5936 152.145 13.4807 152.421 13.4216C152.697 13.3624 152.982 13.3582 153.259 13.4092C153.537 13.4602 153.802 13.5653 154.039 13.7187C156.083 15.0349 158.098 16.4551 160.025 17.9412C160.249 18.1137 160.436 18.3286 160.576 18.5735C160.717 18.8184 160.807 19.0885 160.843 19.3685C160.879 19.6484 160.859 19.9327 160.785 20.2051C160.711 20.4774 160.584 20.7325 160.412 20.9558C160.163 21.2799 159.826 21.5253 159.442 21.6627C159.099 21.7855 158.731 21.8193 158.372 21.761C158.013 21.7027 157.675 21.5542 157.389 21.3294V21.34ZM141.798 11.8823C139.705 10.9121 137.539 10.0184 135.363 9.22865C135.087 9.14132 134.831 8.99893 134.611 8.81003C134.391 8.62114 134.211 8.38966 134.083 8.12954C133.955 7.86942 133.881 7.58605 133.865 7.29649C133.849 7.00694 133.892 6.71719 133.991 6.44472C134.091 6.17224 134.244 5.92268 134.442 5.71106C134.64 5.49944 134.88 5.33016 135.145 5.21339C135.41 5.09663 135.697 5.03481 135.987 5.03166C136.277 5.02851 136.564 5.08408 136.832 5.19505C139.121 6.02725 141.399 6.96771 143.602 7.98672C144.119 8.22602 144.52 8.66094 144.717 9.19583C144.913 9.73072 144.889 10.3218 144.65 10.8389C144.411 11.3561 143.976 11.757 143.441 11.9534C142.906 12.1499 142.315 12.1259 141.798 11.8866V11.8823ZM124.502 6.10792C122.243 5.62601 119.936 5.23539 117.643 4.94455C117.363 4.90928 117.093 4.81925 116.848 4.67961C116.603 4.53997 116.388 4.35344 116.215 4.13068C116.042 3.90792 115.915 3.65329 115.84 3.38132C115.766 3.10936 115.746 2.82539 115.781 2.54562C115.816 2.26586 115.906 1.99577 116.046 1.7508C116.186 1.50583 116.372 1.29076 116.595 1.11787C116.818 0.944988 117.072 0.81767 117.344 0.743191C117.616 0.668712 117.9 0.648527 118.18 0.683794C120.592 0.987375 123.022 1.39923 125.398 1.90661C125.855 2.00445 126.267 2.24842 126.573 2.60159C126.878 2.95476 127.06 3.39789 127.092 3.86386C127.123 4.32984 127.001 4.79329 126.745 5.18404C126.49 5.57478 126.114 5.87154 125.674 6.02937C125.298 6.1625 124.891 6.18606 124.502 6.0973V6.10792ZM47.6197 27.3671C47.2222 26.9589 47.0031 26.4095 47.0107 25.8398C47.0183 25.2701 47.2518 24.7267 47.66 24.3292C49.4008 22.6308 51.2393 20.9919 53.1245 19.4464C53.3413 19.2574 53.5939 19.1138 53.8673 19.0243C54.1406 18.9347 54.4292 18.901 54.7159 18.9251C55.0025 18.9492 55.2814 19.0306 55.536 19.1645C55.7906 19.2983 56.0158 19.482 56.198 19.7045C56.3803 19.9271 56.5161 20.1839 56.5972 20.4599C56.6784 20.7359 56.7033 21.0254 56.6705 21.3111C56.6376 21.5969 56.5477 21.8732 56.4061 22.1236C56.2645 22.374 56.0741 22.5934 55.8461 22.7688C54.0564 24.2358 52.3114 25.794 50.6576 27.4053C50.4391 27.6194 50.177 27.7838 49.8891 27.8872C49.5009 28.028 49.0803 28.0539 48.6777 27.9616C48.2752 27.8694 47.9078 27.6629 47.6197 27.3671ZM106.359 4.30342C104.052 4.33526 101.714 4.46901 99.4174 4.69828C99.1318 4.73615 98.8416 4.7162 98.5639 4.63962C98.2862 4.56305 98.0267 4.43141 97.8009 4.25253C97.5751 4.07365 97.3876 3.85119 97.2495 3.59838C97.1114 3.34557 97.0256 3.06757 96.9971 2.78091C96.9686 2.49426 96.9981 2.20481 97.0837 1.92977C97.1694 1.65473 97.3094 1.39972 97.4956 1.17991C97.6818 0.960098 97.9103 0.779976 98.1675 0.650254C98.4247 0.520532 98.7054 0.443857 98.9928 0.424794C101.411 0.182779 103.876 0.0426644 106.302 0.000205466C106.81 -0.00682072 107.305 0.166556 107.697 0.489523C108.089 0.812491 108.355 1.26414 108.446 1.7642C108.536 2.26426 108.447 2.78035 108.193 3.22077C107.94 3.66118 107.538 3.9974 107.06 4.16967C106.836 4.25368 106.599 4.29891 106.359 4.30342ZM62.1172 15.5211C61.9706 15.2801 61.8728 15.0126 61.8296 14.7338C61.7864 14.455 61.7985 14.1705 61.8654 13.8964C61.9322 13.6223 62.0524 13.3642 62.2191 13.1366C62.3858 12.909 62.5958 12.7165 62.8369 12.5702C64.9132 11.307 67.0828 10.116 69.2504 9.03121C69.5039 8.89628 69.7819 8.81355 70.068 8.78791C70.354 8.76228 70.6424 8.79426 70.9158 8.88198C71.1893 8.96969 71.4425 9.11136 71.6603 9.29859C71.8781 9.48582 72.0561 9.71482 72.1839 9.97205C72.3116 10.2293 72.3865 10.5095 72.4041 10.7962C72.4217 11.0829 72.3816 11.3702 72.2863 11.6411C72.1909 11.912 72.0422 12.1611 71.8489 12.3735C71.6556 12.586 71.4217 12.7575 71.161 12.878C69.089 13.9097 67.0382 15.0392 65.0639 16.2407C64.9413 16.3159 64.8111 16.3778 64.6754 16.4254C64.21 16.592 63.7015 16.5929 63.2355 16.4282C62.7695 16.2634 62.3746 15.9431 62.1172 15.5211ZM88.291 6.60469C86.0492 7.15241 83.801 7.80415 81.6101 8.54294C81.0721 8.73071 80.4816 8.69708 79.9684 8.44945C79.4552 8.20181 79.0614 7.76045 78.8737 7.22247C78.6859 6.68448 78.7195 6.09394 78.9672 5.58075C79.2148 5.06756 79.6561 4.67376 80.1941 4.48599L80.2472 4.46688C82.5548 3.68989 84.9177 3.00418 87.2805 2.42674C87.8149 2.29563 88.3793 2.37457 88.8572 2.64729C89.3352 2.92001 89.6902 3.36572 89.8492 3.89252C90.0082 4.41932 89.959 4.98704 89.7118 5.47863C89.4645 5.97022 89.038 6.34819 88.5203 6.53463C88.4396 6.56647 88.3675 6.58982 88.291 6.60681V6.60469Z" fill="#92EACD"/>
<path opacity="0.3" d="M40.081 39.3511C40.4927 39.2024 40.8491 38.9312 41.1021 38.5741C41.739 37.6697 42.4141 36.7653 43.0956 35.8843C43.2786 35.6623 43.4152 35.4058 43.4972 35.13C43.5793 34.8542 43.605 34.5647 43.5731 34.2788C43.5411 33.9928 43.452 33.7162 43.3111 33.4653C43.1701 33.2145 42.9803 32.9945 42.7527 32.8184C42.5251 32.6423 42.2645 32.5137 41.9863 32.4403C41.7081 32.3669 41.418 32.3501 41.1331 32.3909C40.8483 32.4317 40.5746 32.5293 40.3282 32.6779C40.0818 32.8266 39.8678 33.0232 39.6989 33.2561C38.9813 34.1838 38.2765 35.1349 37.6014 36.086C37.3362 36.4591 37.1971 36.9073 37.2044 37.365C37.2117 37.8228 37.3651 38.2663 37.6421 38.6308C37.9191 38.9952 38.3054 39.2617 38.7445 39.3913C39.1836 39.5209 39.6526 39.5068 40.0831 39.3511H40.081Z" fill="#92EACD"/>
</g>
<g opacity="0.3">
<path opacity="0.3" d="M26.0358 103.318C26.5158 103.144 26.9183 102.805 27.1712 102.361C27.424 101.918 27.5107 101.399 27.4157 100.897C27.2034 99.8104 27.023 98.7001 26.8616 97.5962C26.8337 97.3064 26.7471 97.0253 26.6072 96.77C26.4673 96.5147 26.2769 96.2905 26.0477 96.111C25.8185 95.9315 25.5552 95.8005 25.2738 95.7259C24.9923 95.6513 24.6987 95.6346 24.4107 95.677C24.1226 95.7193 23.8462 95.8197 23.5982 95.9722C23.3501 96.1246 23.1357 96.3259 22.9678 96.5638C22.7999 96.8016 22.6822 97.0711 22.6216 97.3559C22.5611 97.6407 22.5591 97.9348 22.6157 98.2204C22.7856 99.3816 22.9809 100.556 23.1974 101.698C23.304 102.257 23.6283 102.752 24.0991 103.073C24.57 103.394 25.149 103.515 25.7089 103.409C25.8201 103.387 25.9294 103.357 26.0358 103.318Z" fill="#92EACD"/>
<path opacity="0.3" d="M132.521 167.904C132.249 167.993 131.962 168.028 131.677 168.005C131.392 167.982 131.114 167.903 130.86 167.771C130.606 167.64 130.381 167.459 130.198 167.239C130.015 167.02 129.877 166.765 129.794 166.492C129.71 166.218 129.682 165.931 129.711 165.646C129.74 165.362 129.825 165.086 129.962 164.835C130.099 164.584 130.285 164.363 130.508 164.184C130.732 164.006 130.989 163.874 131.264 163.796C133.423 163.136 135.588 162.374 137.724 161.52C138.249 161.33 138.828 161.351 139.338 161.58C139.848 161.808 140.248 162.226 140.455 162.745C140.662 163.264 140.659 163.843 140.446 164.36C140.234 164.877 139.828 165.29 139.316 165.513C138.391 165.881 137.463 166.235 136.533 166.575C135.206 167.046 133.856 167.496 132.521 167.904ZM146.944 159.637C146.664 159.141 146.592 158.554 146.744 158.006C146.896 157.457 147.26 156.991 147.755 156.71C149.736 155.589 151.693 154.374 153.568 153.09C153.8 152.923 154.064 152.804 154.343 152.74C154.623 152.676 154.912 152.668 155.194 152.718C155.476 152.768 155.746 152.873 155.987 153.029C156.227 153.184 156.435 153.386 156.596 153.623C156.758 153.859 156.871 154.126 156.928 154.407C156.985 154.687 156.985 154.977 156.928 155.258C156.872 155.539 156.76 155.805 156.598 156.042C156.437 156.279 156.23 156.482 155.99 156.637C154.015 157.985 151.956 159.268 149.871 160.459C149.376 160.739 148.789 160.811 148.24 160.659C147.691 160.507 147.225 160.143 146.944 159.648V159.637ZM121.118 170.553C118.76 170.933 116.35 171.218 113.96 171.402C113.397 171.435 112.844 171.246 112.42 170.875C111.996 170.504 111.734 169.981 111.692 169.419C111.65 168.857 111.83 168.301 112.194 167.871C112.557 167.44 113.076 167.17 113.637 167.118C115.909 166.949 118.195 166.677 120.43 166.316C120.957 166.235 121.495 166.354 121.94 166.647C122.384 166.941 122.704 167.39 122.836 167.906C122.969 168.423 122.904 168.97 122.656 169.441C122.407 169.913 121.993 170.275 121.492 170.458C121.371 170.501 121.246 170.533 121.118 170.553ZM162.151 149.239C161.768 148.816 161.569 148.259 161.597 147.69C161.625 147.121 161.877 146.586 162.299 146.203C163.985 144.677 165.624 143.059 167.182 141.395C167.573 140.991 168.107 140.756 168.67 140.742C169.232 140.727 169.778 140.934 170.189 141.317C170.601 141.7 170.846 142.23 170.872 142.792C170.897 143.354 170.701 143.903 170.326 144.322C168.696 146.074 166.97 147.778 165.195 149.385C164.988 149.573 164.745 149.717 164.482 149.81C164.08 149.958 163.644 149.982 163.229 149.88C162.814 149.779 162.438 149.555 162.151 149.239ZM102.262 171.473C99.8804 171.324 97.4687 171.071 95.0974 170.723C94.8079 170.695 94.5272 170.608 94.2724 170.467C94.0175 170.327 93.7938 170.137 93.6148 169.908C93.4357 169.678 93.3051 169.415 93.2308 169.134C93.1565 168.853 93.14 168.559 93.1825 168.272C93.2249 167.984 93.3253 167.708 93.4777 167.46C93.63 167.212 93.8311 166.998 94.0687 166.83C94.3063 166.662 94.5755 166.544 94.86 166.484C95.1445 166.423 95.4383 166.421 95.7237 166.477C97.9761 166.808 100.267 167.048 102.53 167.188C103.023 167.219 103.49 167.419 103.853 167.755C104.216 168.09 104.452 168.54 104.522 169.029C104.592 169.518 104.491 170.017 104.236 170.44C103.982 170.863 103.589 171.186 103.124 171.354C102.848 171.452 102.555 171.493 102.262 171.473ZM83.6632 168.233C81.3641 167.566 79.067 166.794 76.8337 165.938C76.5704 165.837 76.3295 165.685 76.1249 165.491C75.9202 165.297 75.7558 165.065 75.6409 164.807C75.5261 164.55 75.4631 164.272 75.4556 163.99C75.4481 163.708 75.4961 163.428 75.5971 163.164C75.698 162.901 75.8498 162.66 76.0438 162.456C76.2378 162.251 76.4702 162.086 76.7278 161.972C76.9853 161.857 77.263 161.794 77.5449 161.786C77.8268 161.779 78.1074 161.827 78.3707 161.928C80.4936 162.739 82.676 163.473 84.8605 164.108C85.1385 164.18 85.3992 164.308 85.6271 164.482C85.855 164.657 86.0456 164.876 86.1875 165.126C86.3295 165.375 86.4199 165.651 86.4535 165.936C86.4871 166.221 86.4631 166.51 86.3831 166.786C86.303 167.062 86.1684 167.319 85.9874 167.542C85.8063 167.765 85.5823 167.949 85.3287 168.084C85.0752 168.219 84.7971 168.302 84.511 168.327C84.225 168.353 83.9367 168.321 83.6632 168.233ZM66.2126 161.015C64.1109 159.862 62.0368 158.607 60.0433 157.287C59.7933 157.138 59.5761 156.94 59.4049 156.705C59.2338 156.47 59.1121 156.202 59.0474 155.919C58.9827 155.635 58.9763 155.341 59.0285 155.055C59.0808 154.769 59.1906 154.496 59.3513 154.254C59.5121 154.011 59.7204 153.804 59.9636 153.644C60.2069 153.485 60.48 153.376 60.7665 153.325C61.0529 153.275 61.3467 153.282 61.63 153.349C61.9133 153.415 62.1803 153.538 62.4146 153.71C64.3062 154.965 66.2784 156.156 68.274 157.251C68.7737 157.525 69.1441 157.986 69.3037 158.533C69.4634 159.08 69.3992 159.668 69.1253 160.168C68.8514 160.668 68.3902 161.038 67.8431 161.198C67.2961 161.357 66.708 161.293 66.2084 161.019L66.2126 161.015ZM50.7491 150.162C48.9531 148.579 47.2016 146.899 45.5457 145.171C45.1516 144.76 44.9371 144.208 44.9495 143.639C44.9618 143.069 45.2 142.528 45.6115 142.133C46.0231 141.739 46.5744 141.525 47.1441 141.537C47.7139 141.55 48.2553 141.788 48.6495 142.199C50.2204 143.84 51.8827 145.435 53.5896 146.938C53.8084 147.122 53.9881 147.348 54.1183 147.603C54.2484 147.858 54.3264 148.136 54.3475 148.422C54.3687 148.707 54.3326 148.994 54.2415 149.265C54.1503 149.536 54.0059 149.786 53.8167 150.001C53.6275 150.216 53.3973 150.39 53.1397 150.515C52.8821 150.639 52.6021 150.711 52.3164 150.726C52.0306 150.741 51.7448 150.698 51.4757 150.601C51.2065 150.504 50.9595 150.354 50.7491 150.16V150.162ZM38.0432 136.172C36.6421 134.236 35.3046 132.215 34.0712 130.162C33.916 129.92 33.8108 129.65 33.7619 129.367C33.713 129.084 33.7215 128.794 33.7866 128.514C33.8518 128.234 33.9725 127.97 34.1415 127.738C34.3104 127.505 34.5243 127.309 34.7704 127.161C35.0165 127.013 35.2898 126.915 35.5742 126.875C35.8586 126.834 36.1483 126.851 36.4262 126.924C36.704 126.997 36.9643 127.125 37.1918 127.301C37.4192 127.476 37.6091 127.696 37.7503 127.946C38.9243 129.897 40.1938 131.816 41.5249 133.657C41.6988 133.885 41.8253 134.145 41.897 134.423C41.9686 134.701 41.9839 134.99 41.942 135.274C41.9001 135.557 41.8017 135.83 41.6528 136.075C41.5039 136.32 41.3074 136.533 41.0749 136.701C40.8424 136.869 40.5787 136.989 40.2992 137.053C40.0197 137.117 39.7301 137.125 39.4476 137.076C39.165 137.027 38.8952 136.921 38.654 136.766C38.4128 136.611 38.2051 136.409 38.0432 136.172ZM28.7278 119.751C28.0314 118.134 27.3754 116.476 26.7789 114.822C26.5666 114.221 26.3543 113.622 26.1526 113.022C26.0594 112.754 26.0206 112.471 26.0384 112.189C26.0562 111.906 26.1302 111.63 26.2562 111.377C26.3822 111.124 26.5576 110.898 26.772 110.713C26.9865 110.529 27.2357 110.389 27.5049 110.302C27.7724 110.212 28.055 110.176 28.3366 110.195C28.6182 110.214 28.8932 110.289 29.1459 110.414C29.3987 110.54 29.6242 110.714 29.8096 110.927C29.995 111.14 30.1367 111.387 30.2266 111.654C30.4176 112.225 30.6172 112.796 30.821 113.365C31.3878 114.936 32.0098 116.514 32.6722 118.051C32.7842 118.31 32.8441 118.588 32.8484 118.87C32.8527 119.152 32.8013 119.433 32.6972 119.695C32.5931 119.957 32.4383 120.196 32.2417 120.399C32.045 120.601 31.8104 120.763 31.5513 120.874L31.426 120.923C30.9121 121.108 30.3469 121.091 29.8456 120.874C29.3442 120.657 28.9445 120.257 28.7278 119.755V119.751Z" fill="#92EACD"/>
<path opacity="0.3" d="M176.693 135.966C177.108 135.817 177.467 135.542 177.72 135.181C178.389 134.23 179.049 133.245 179.684 132.255C179.959 131.777 180.041 131.212 179.911 130.676C179.78 130.14 179.449 129.674 178.985 129.376C178.521 129.077 177.96 128.968 177.419 129.072C176.877 129.176 176.396 129.484 176.075 129.933C175.472 130.873 174.844 131.807 174.209 132.712C173.947 133.086 173.81 133.533 173.82 133.99C173.829 134.446 173.984 134.888 174.261 135.25C174.538 135.613 174.924 135.878 175.362 136.007C175.8 136.135 176.267 136.121 176.697 135.966H176.693Z" fill="#92EACD"/>
</g>
<path d="M170.388 99.6831C170.457 99.4859 170.463 99.272 170.405 99.0712C170.347 98.8703 170.228 98.6924 170.065 98.5622L160.495 90.9685C161.124 85.2157 160.81 79.399 159.567 73.7471L168.271 65.1704C168.419 65.0234 168.518 64.8338 168.554 64.628C168.59 64.4222 168.561 64.2104 168.471 64.0219L162.138 50.8023C162.047 50.614 161.9 50.4585 161.717 50.3577C161.534 50.2568 161.324 50.2156 161.117 50.2397L148.986 51.6366C145.356 47.1287 141.015 43.2429 136.134 40.1324L136.212 27.9127C136.214 27.7039 136.151 27.4997 136.031 27.3288C135.911 27.1578 135.741 27.0287 135.544 26.9595L121.717 22.0874C121.52 22.0185 121.306 22.0127 121.106 22.0709C120.905 22.1292 120.728 22.2485 120.598 22.4122L113.004 31.9782C107.251 31.3519 101.434 31.6681 95.7831 32.9144L87.2043 24.2103C87.0574 24.0617 86.8678 23.9626 86.6619 23.9268C86.4561 23.8911 86.2441 23.9204 86.0557 24.0108L72.8383 30.3456C72.6499 30.4357 72.4943 30.5822 72.3931 30.7649C72.2918 30.9475 72.2501 31.1572 72.2736 31.3646L73.6662 43.4973C69.1557 47.1223 65.2671 51.4592 62.1535 56.3368L49.9402 56.2668C49.7313 56.2655 49.5272 56.3295 49.3563 56.4497C49.1854 56.57 49.0563 56.7405 48.987 56.9376L44.117 70.7623C44.0477 70.9595 44.0415 71.1734 44.0993 71.3742C44.1572 71.5751 44.2761 71.753 44.4397 71.8832L54.0141 79.477C53.3834 85.2295 53.6961 91.0465 54.9397 96.6983L46.2484 105.275C46.0977 105.42 45.9962 105.609 45.9581 105.815C45.92 106.021 45.9473 106.234 46.0361 106.423L52.371 119.643C52.4611 119.831 52.6077 119.987 52.7904 120.087C52.9731 120.188 53.1827 120.23 53.39 120.206L65.5226 118.809C69.1477 123.319 73.4846 127.208 78.3622 130.321L78.2815 142.541C78.2796 142.75 78.3433 142.955 78.4637 143.126C78.584 143.297 78.7549 143.426 78.9524 143.494L92.777 148.362C92.9739 148.432 93.1875 148.438 93.3881 148.38C93.5886 148.322 93.7661 148.203 93.8958 148.04L101.492 138.467C107.244 139.097 113.06 138.784 118.711 137.542L127.29 146.233C127.437 146.381 127.626 146.48 127.832 146.516C128.038 146.552 128.25 146.523 128.438 146.433L141.656 140.1C141.851 140.011 142.012 139.863 142.117 139.676C142.222 139.489 142.264 139.274 142.237 139.062L140.84 126.931C145.35 123.305 149.238 118.968 152.353 114.092L164.571 114.172C164.78 114.173 164.984 114.109 165.155 113.989C165.327 113.869 165.456 113.698 165.526 113.501L170.388 99.6831Z" fill="#92EACD"/>
<path d="M110.181 99.6576C106.446 100.409 102.565 99.6827 99.3542 97.6317C96.1436 95.5806 93.8534 92.3646 92.9652 88.6597C92.077 84.9549 92.6599 81.05 94.5915 77.7662C96.523 74.4823 99.6527 72.0753 103.322 71.0514C106.992 70.0275 110.916 70.4664 114.268 72.2759C117.621 74.0853 120.142 77.1243 121.3 80.7538C122.458 84.3833 122.164 88.3205 120.479 91.7374C118.794 95.1544 115.85 97.785 112.265 99.0759C111.586 99.3206 110.889 99.515 110.181 99.6576ZM97.8399 78.9823C96.3953 81.1601 95.7504 83.7714 96.0153 86.3713C96.2801 88.9713 97.4383 91.399 99.2924 93.2407C101.146 95.0825 103.582 96.2244 106.183 96.472C108.785 96.7195 111.392 96.0573 113.56 94.5981C115.728 93.139 117.324 90.9733 118.074 88.47C118.824 85.9666 118.683 83.2805 117.675 80.8694C116.667 78.4582 114.854 76.4712 112.546 75.2468C110.237 74.0224 107.575 73.6365 105.013 74.1547C104.465 74.2656 103.926 74.4168 103.4 74.6069C101.123 75.4275 99.1728 76.9623 97.8399 78.9823Z" fill="#92EACD"/>
<path d="M119.186 119.197C120.354 118.776 121.5 118.297 122.619 117.76C122.976 117.59 123.33 117.415 123.681 117.233C125.4 116.341 127.046 115.314 128.602 114.159L128.665 114.113L128.844 113.977L129.19 113.714C129.334 113.604 129.44 113.45 129.491 113.275C129.542 113.1 129.535 112.914 129.472 112.743C129.442 112.658 129.398 112.579 129.343 112.508C129.203 112.328 128.997 112.21 128.771 112.182C128.545 112.153 128.317 112.215 128.137 112.355C122.555 116.677 115.784 119.186 108.734 119.544C101.683 119.901 94.6929 118.09 88.703 114.355C83.1339 110.896 78.6724 105.915 75.8464 99.9994C75.3327 98.9224 74.8755 97.8305 74.475 96.7237C71.599 88.6847 71.8045 79.865 75.0518 71.9686C78.2991 64.0723 84.3578 57.6597 92.0573 53.9697C109.226 45.7454 129.869 53.0208 138.089 70.1805C140.786 75.8071 141.907 82.0592 141.335 88.2723C141.322 88.3981 141.338 88.5251 141.382 88.6438C141.438 88.8382 141.562 89.0061 141.731 89.1172C141.901 89.2282 142.104 89.2752 142.305 89.2496C142.506 89.224 142.691 89.1275 142.827 88.9775C142.962 88.8275 143.04 88.6338 143.046 88.4315C143.652 81.9088 142.478 75.3439 139.649 69.4354C131.009 51.4222 109.332 43.7902 91.3163 52.4179C83.2325 56.2911 76.8712 63.0234 73.4619 71.3136C70.0526 79.6038 69.8372 88.8635 72.8573 97.3033C73.2819 98.4652 73.7617 99.6116 74.2967 100.742C78.1711 108.826 84.9044 115.187 93.1954 118.595C101.486 122.004 110.747 122.218 119.186 119.197Z" fill="#92EACD"/>
<g opacity="0.3">
<path opacity="0.3" d="M277.681 96.3416C277.951 96.2444 278.182 96.0622 278.339 95.8226C278.496 95.583 278.572 95.2988 278.554 95.0127C278.488 93.8896 278.384 92.7517 278.248 91.633C278.233 91.4549 278.183 91.2816 278.1 91.1235C278.017 90.9654 277.903 90.8256 277.765 90.7127C277.626 90.5997 277.466 90.5159 277.295 90.4661C277.123 90.4164 276.943 90.4018 276.766 90.4233C276.589 90.4447 276.418 90.5018 276.263 90.591C276.108 90.6802 275.973 90.7997 275.866 90.9424C275.758 91.0851 275.681 91.248 275.638 91.4214C275.595 91.5948 275.587 91.775 275.615 91.9514C275.743 93.0129 275.841 94.1019 275.906 95.174C275.928 95.525 276.087 95.8532 276.351 96.0864C276.614 96.3197 276.959 96.439 277.31 96.4181C277.437 96.4115 277.562 96.3858 277.681 96.3416Z" fill="#92EACD"/>
<path opacity="0.3" d="M275.998 86.2938C275.656 86.3785 275.294 86.3241 274.993 86.1426C274.691 85.9611 274.474 85.6673 274.388 85.3257C273.939 83.5249 273.399 81.7479 272.771 80.0013C272.637 79.6341 272.501 79.2668 272.359 78.8995C272.234 78.571 272.244 78.2062 272.387 77.8851C272.53 77.564 272.795 77.3127 273.123 77.1863C273.453 77.0722 273.813 77.0876 274.132 77.2295C274.45 77.3715 274.703 77.6292 274.838 77.9506C274.98 78.3327 275.122 78.7163 275.263 79.1012C275.923 80.9333 276.489 82.7975 276.961 84.6867C277.04 85.005 276.998 85.3413 276.844 85.6306C276.69 85.92 276.433 86.1418 276.125 86.2534L275.998 86.2938ZM269.565 72.7706C268.51 70.7897 267.333 68.8754 266.043 67.0386C265.94 66.8962 265.865 66.7346 265.825 66.5632C265.784 66.3917 265.778 66.214 265.807 66.0403C265.836 65.8665 265.899 65.7003 265.993 65.5512C266.087 65.4022 266.21 65.2733 266.354 65.1721C266.498 65.0709 266.661 64.9995 266.833 64.9619C267.005 64.9243 267.183 64.9213 267.356 64.9532C267.529 64.985 267.694 65.0511 267.842 65.1474C267.989 65.2438 268.116 65.3685 268.215 65.5144C269.569 67.4432 270.801 69.4539 271.907 71.535C272.072 71.8456 272.107 72.209 272.004 72.5454C271.901 72.8817 271.669 73.1636 271.359 73.3289C271.303 73.3579 271.244 73.3835 271.185 73.4054C270.884 73.5124 270.554 73.5071 270.256 73.3905C269.959 73.2739 269.713 73.0538 269.565 72.7706ZM261.838 61.7631C260.328 60.0972 258.716 58.5267 257.012 57.0608C256.745 56.8314 256.58 56.5053 256.554 56.1544C256.527 55.8034 256.642 55.4563 256.871 55.1894C257.1 54.9225 257.426 54.7577 257.777 54.7313C258.128 54.7048 258.475 54.8188 258.742 55.0483C260.529 56.5868 262.219 58.2338 263.803 59.9799C263.921 60.1089 264.011 60.2598 264.07 60.4239C264.129 60.5879 264.155 60.762 264.146 60.936C264.138 61.1101 264.095 61.2808 264.02 61.4384C263.946 61.596 263.841 61.7373 263.712 61.8544C263.583 61.9703 263.433 62.0604 263.271 62.1198C263.023 62.2087 262.755 62.2223 262.5 62.1588C262.245 62.0953 262.014 61.9576 261.838 61.7631ZM251.647 52.9911C249.776 51.7464 247.83 50.6184 245.82 49.6135C245.659 49.5388 245.515 49.4325 245.396 49.3011C245.277 49.1697 245.185 49.0157 245.127 48.8483C245.068 48.6808 245.044 48.5034 245.055 48.3264C245.066 48.1494 245.113 47.9764 245.192 47.8178C245.271 47.6591 245.381 47.5179 245.516 47.4025C245.651 47.2871 245.807 47.2 245.976 47.1461C246.145 47.0922 246.323 47.0728 246.5 47.0889C246.677 47.1051 246.848 47.1565 247.005 47.2401C249.113 48.2935 251.154 49.4761 253.117 50.7811C253.262 50.8775 253.387 51.0016 253.484 51.1463C253.581 51.291 253.649 51.4535 253.684 51.6244C253.718 51.7954 253.719 51.9714 253.685 52.1426C253.652 52.3137 253.585 52.4765 253.488 52.6217C253.329 52.8569 253.101 53.036 252.834 53.1334C252.638 53.2052 252.428 53.2298 252.221 53.205C252.013 53.1803 251.815 53.107 251.641 52.9911H251.647ZM239.619 46.9747C237.501 46.2225 235.338 45.6008 233.144 45.1129C232.803 45.0338 232.507 44.8232 232.321 44.5271C232.134 44.2309 232.073 43.8732 232.149 43.5316C232.225 43.1901 232.433 42.8925 232.727 42.7035C233.022 42.5146 233.379 42.4497 233.721 42.5229C236.023 43.0342 238.292 43.6851 240.515 44.4717C240.847 44.5894 241.118 44.8341 241.27 45.152C241.421 45.4699 241.44 45.835 241.322 46.1669C241.205 46.4988 240.96 46.7704 240.642 46.9219C240.324 47.0734 239.959 47.0924 239.627 46.9747H239.619ZM226.495 44.0599C224.26 43.8449 222.014 43.7698 219.769 43.8349C219.417 43.845 219.076 43.7149 218.82 43.4733C218.564 43.2316 218.414 42.8981 218.404 42.5462C218.394 42.1943 218.524 41.8528 218.766 41.5968C219.008 41.3408 219.341 41.1913 219.693 41.1812C222.047 41.1143 224.403 41.193 226.747 41.4168C226.921 41.4334 227.09 41.484 227.244 41.5658C227.398 41.6475 227.534 41.7588 227.645 41.8932C227.756 42.0277 227.839 42.1826 227.89 42.3493C227.941 42.516 227.959 42.6911 227.943 42.8647C227.926 43.0382 227.875 43.2068 227.794 43.3608C227.712 43.5148 227.601 43.6512 227.466 43.7621C227.332 43.8731 227.177 43.9565 227.01 44.0076C226.843 44.0587 226.668 44.0765 226.495 44.0599ZM213.061 44.442C210.84 44.7846 208.642 45.2639 206.48 45.8771C206.309 45.9376 206.127 45.9624 205.946 45.95C205.766 45.9376 205.589 45.8882 205.428 45.805C205.267 45.7218 205.125 45.6064 205.01 45.4661C204.895 45.3257 204.81 45.1633 204.761 44.9889C204.711 44.8145 204.698 44.6319 204.722 44.4521C204.746 44.2724 204.806 44.0994 204.899 43.944C204.992 43.7885 205.117 43.6537 205.264 43.5481C205.411 43.4424 205.579 43.3681 205.756 43.3296C208.023 42.6874 210.328 42.1854 212.657 41.8265C212.976 41.7895 213.298 41.8694 213.562 42.0512C213.827 42.2331 214.016 42.5047 214.096 42.8157C214.175 43.1267 214.14 43.4559 213.995 43.7425C213.85 44.029 213.607 44.2534 213.309 44.3741C213.227 44.4061 213.142 44.4289 213.054 44.442H213.061ZM192.275 50.6155C192.1 50.3106 192.053 49.9486 192.144 49.6091C192.236 49.2695 192.459 48.9802 192.763 48.8047C194.539 47.7892 196.368 46.868 198.241 46.0448C198.525 45.9175 198.809 45.7965 199.09 45.6754C199.25 45.606 199.423 45.5693 199.597 45.5674C199.772 45.5656 199.945 45.5987 200.107 45.6647C200.269 45.7308 200.416 45.8285 200.539 45.9521C200.663 46.0757 200.76 46.2227 200.826 46.3845C200.894 46.5452 200.929 46.7177 200.93 46.8921C200.931 47.0665 200.898 47.2394 200.832 47.4009C200.766 47.5623 200.669 47.7092 200.547 47.8332C200.424 47.9571 200.278 48.0557 200.117 48.1232C199.85 48.2336 199.582 48.3504 199.31 48.4714C197.522 49.2587 195.777 50.1402 194.082 51.1123C194.014 51.1524 193.943 51.1858 193.869 51.2121C193.575 51.3175 193.253 51.3155 192.96 51.2063C192.667 51.0971 192.422 50.8879 192.269 50.6155H192.275Z" fill="#92EACD"/>
</g>
<g opacity="0.3">
<path opacity="0.3" d="M240.007 152.648C237.818 153.405 235.585 154.03 233.32 154.519C233.149 154.557 232.973 154.56 232.801 154.529C232.629 154.499 232.464 154.434 232.317 154.34C232.17 154.245 232.043 154.123 231.943 153.979C231.844 153.835 231.774 153.673 231.737 153.502C231.7 153.331 231.697 153.155 231.729 152.983C231.761 152.811 231.826 152.647 231.921 152.5C232.016 152.354 232.14 152.227 232.284 152.129C232.428 152.03 232.591 151.96 232.762 151.925C234.919 151.459 237.045 150.863 239.131 150.141C239.463 150.024 239.827 150.044 240.145 150.196C240.462 150.347 240.707 150.619 240.824 150.951C240.941 151.283 240.921 151.648 240.769 151.965C240.617 152.283 240.346 152.527 240.014 152.644L240.007 152.648ZM244.655 149.375C244.578 149.218 244.534 149.048 244.523 148.874C244.513 148.7 244.537 148.526 244.594 148.361C244.651 148.197 244.739 148.045 244.855 147.915C244.971 147.784 245.111 147.678 245.268 147.602C247.256 146.634 249.184 145.548 251.042 144.35C251.338 144.165 251.694 144.104 252.035 144.18C252.375 144.255 252.672 144.462 252.861 144.755C253.05 145.048 253.116 145.403 253.045 145.745C252.974 146.086 252.772 146.386 252.482 146.579C250.534 147.836 248.512 148.974 246.427 149.988C246.385 150.01 246.341 150.028 246.296 150.044C245.988 150.154 245.65 150.147 245.348 150.024C245.045 149.901 244.798 149.671 244.655 149.377V149.375ZM226.448 155.561C224.139 155.766 221.819 155.831 219.502 155.756C219.156 155.737 218.831 155.583 218.597 155.327C218.363 155.072 218.238 154.735 218.25 154.388C218.261 154.042 218.408 153.713 218.658 153.474C218.908 153.234 219.242 153.101 219.589 153.105C221.799 153.176 224.01 153.114 226.213 152.918C226.533 152.891 226.852 152.981 227.112 153.171C227.371 153.362 227.552 153.64 227.621 153.954C227.69 154.268 227.643 154.597 227.488 154.879C227.333 155.161 227.082 155.377 226.779 155.487C226.673 155.527 226.561 155.552 226.448 155.563V155.561ZM256.212 142.291C255.987 142.02 255.878 141.672 255.91 141.321C255.942 140.971 256.112 140.648 256.382 140.422C258.078 139.005 259.688 137.485 261.201 135.873C261.318 135.74 261.461 135.631 261.621 135.554C261.781 135.477 261.955 135.433 262.133 135.425C262.31 135.416 262.487 135.443 262.654 135.505C262.821 135.566 262.974 135.66 263.103 135.782C263.233 135.903 263.337 136.049 263.409 136.212C263.481 136.374 263.52 136.549 263.523 136.727C263.526 136.904 263.494 137.081 263.427 137.245C263.361 137.41 263.262 137.56 263.137 137.686C261.551 139.378 259.863 140.972 258.082 142.458C257.962 142.557 257.827 142.636 257.681 142.69C257.425 142.782 257.147 142.793 256.884 142.722C256.621 142.651 256.387 142.501 256.212 142.293V142.291ZM212.59 155.109C210.297 154.75 208.029 154.254 205.796 153.623C205.618 153.585 205.45 153.511 205.302 153.406C205.154 153.3 205.03 153.166 204.936 153.01C204.842 152.855 204.781 152.681 204.757 152.501C204.733 152.321 204.746 152.138 204.796 151.963C204.845 151.789 204.93 151.626 205.045 151.485C205.16 151.345 205.303 151.229 205.464 151.146C205.626 151.063 205.802 151.013 205.984 151.001C206.165 150.989 206.347 151.014 206.518 151.075C208.645 151.675 210.807 152.146 212.991 152.485C213.282 152.53 213.55 152.671 213.753 152.886C213.955 153.101 214.08 153.377 214.108 153.67C214.136 153.964 214.066 154.259 213.907 154.508C213.749 154.757 213.513 154.946 213.235 155.045C213.028 155.12 212.807 155.142 212.59 155.111V155.109ZM199.243 151.345C197.105 150.449 195.022 149.427 193.005 148.284C192.847 148.202 192.706 148.088 192.592 147.951C192.479 147.813 192.394 147.654 192.343 147.483C192.292 147.311 192.276 147.132 192.297 146.954C192.317 146.777 192.373 146.605 192.461 146.45C192.55 146.294 192.668 146.159 192.81 146.05C192.952 145.942 193.115 145.863 193.288 145.819C193.461 145.775 193.641 145.767 193.818 145.794C193.994 145.821 194.164 145.884 194.315 145.978C196.237 147.068 198.222 148.042 200.26 148.895C200.584 149.031 200.842 149.29 200.976 149.616C201.11 149.941 201.109 150.307 200.973 150.632C200.837 150.957 200.578 151.214 200.252 151.348C199.927 151.482 199.561 151.481 199.236 151.345H199.243ZM187.18 144.492C185.318 143.115 183.54 141.626 181.858 140.034C181.608 139.791 181.463 139.459 181.456 139.11C181.449 138.761 181.58 138.423 181.82 138.17C182.06 137.917 182.39 137.768 182.739 137.757C183.088 137.745 183.427 137.872 183.684 138.108C185.287 139.63 186.983 141.053 188.76 142.369C188.9 142.473 189.018 142.603 189.108 142.752C189.197 142.902 189.257 143.067 189.282 143.24C189.308 143.412 189.3 143.588 189.257 143.757C189.215 143.926 189.139 144.085 189.035 144.225C188.882 144.436 188.668 144.596 188.422 144.683C188.215 144.757 187.994 144.778 187.777 144.745C187.56 144.712 187.355 144.626 187.18 144.494V144.492Z" fill="#92EACD"/>
<path opacity="0.3" d="M266.988 132.752C267.238 132.664 267.455 132.502 267.61 132.287C268.279 131.37 268.924 130.428 269.521 129.489C269.615 129.343 269.679 129.179 269.71 129.007C269.741 128.836 269.738 128.66 269.701 128.49C269.664 128.319 269.594 128.158 269.494 128.015C269.395 127.872 269.268 127.749 269.122 127.655C268.975 127.561 268.811 127.496 268.64 127.466C268.468 127.435 268.292 127.438 268.122 127.475C267.952 127.512 267.79 127.582 267.647 127.682C267.504 127.781 267.382 127.908 267.287 128.054C266.712 128.95 266.096 129.848 265.46 130.725C265.292 130.954 265.202 131.231 265.204 131.515C265.205 131.8 265.298 132.076 265.469 132.303C265.64 132.53 265.879 132.697 266.151 132.777C266.424 132.858 266.715 132.85 266.982 132.752H266.988Z" fill="#92EACD"/>
</g>
<path d="M263.398 107.75C263.445 107.619 263.449 107.476 263.411 107.342C263.373 107.207 263.294 107.088 263.186 107.001L256.776 101.91C257.198 98.0615 256.988 94.17 256.157 90.3888L261.973 84.6569C262.073 84.5585 262.139 84.4317 262.163 84.294C262.187 84.1563 262.167 84.0145 262.107 83.8884L257.861 75.0421C257.8 74.9162 257.702 74.8124 257.579 74.745C257.457 74.6777 257.317 74.6502 257.178 74.6663L249.06 75.6004C246.634 72.5822 243.732 69.98 240.468 67.8962L240.523 59.7208C240.523 59.5812 240.48 59.4451 240.399 59.331C240.318 59.217 240.205 59.1307 240.073 59.0839L230.823 55.8273C230.692 55.7803 230.549 55.7755 230.415 55.8135C230.28 55.8516 230.161 55.9306 230.074 56.0396L224.992 62.4466C221.142 62.0254 217.25 62.2348 213.468 63.0665L207.736 57.2497C207.638 57.1503 207.511 57.0841 207.374 57.0601C207.236 57.0361 207.094 57.0556 206.968 57.1159L198.122 61.3618C197.996 61.4226 197.892 61.5211 197.825 61.6436C197.757 61.7661 197.73 61.9065 197.746 62.0454L198.68 70.1635C195.662 72.5888 193.06 75.4909 190.978 78.7551L182.8 78.6999C182.661 78.6998 182.524 78.7431 182.41 78.8237C182.296 78.9043 182.21 79.0183 182.163 79.15L178.907 88.3996C178.86 88.5311 178.855 88.674 178.893 88.8083C178.931 88.9426 179.01 89.0618 179.119 89.149L185.524 94.2314C185.103 98.0806 185.312 101.973 186.144 105.755L180.327 111.487C180.228 111.585 180.161 111.712 180.137 111.85C180.114 111.987 180.133 112.129 180.193 112.255L184.439 121.099C184.5 121.226 184.598 121.33 184.721 121.398C184.843 121.465 184.984 121.493 185.123 121.477L193.241 120.541C195.666 123.56 198.568 126.162 201.832 128.245L201.779 136.423C201.778 136.562 201.821 136.699 201.901 136.813C201.981 136.927 202.096 137.014 202.227 137.06L211.479 140.318C211.611 140.365 211.753 140.37 211.888 140.332C212.022 140.294 212.141 140.215 212.229 140.106L217.309 133.701C221.158 134.123 225.05 133.913 228.832 133.081L234.564 138.898C234.662 138.997 234.789 139.064 234.927 139.088C235.065 139.112 235.206 139.092 235.333 139.032L244.179 134.786C244.305 134.725 244.409 134.627 244.476 134.504C244.543 134.382 244.571 134.241 244.555 134.102L243.621 125.984C246.639 123.558 249.241 120.656 251.325 117.393L259.5 117.446C259.64 117.446 259.776 117.404 259.89 117.323C260.004 117.243 260.09 117.129 260.137 116.998L263.398 107.75Z" fill="#92EACD"/>
<path d="M223.141 107.907C220.609 108.413 217.979 107.917 215.805 106.524C213.631 105.132 212.082 102.951 211.482 100.439C210.883 97.928 211.28 95.2821 212.591 93.0576C213.901 90.8331 216.023 89.2033 218.51 88.5105C220.997 87.8178 223.656 88.1161 225.928 89.3428C228.2 90.5696 229.908 92.6291 230.693 95.0888C231.478 97.5484 231.279 100.217 230.138 102.533C228.997 104.849 227.002 106.632 224.573 107.508C224.106 107.675 223.627 107.809 223.141 107.907ZM213.916 99.5344C214.108 100.486 214.485 101.39 215.026 102.195C215.567 103 216.262 103.69 217.071 104.227C217.879 104.763 218.786 105.134 219.738 105.32C220.69 105.505 221.67 105.501 222.62 105.307C224.54 104.919 226.226 103.784 227.309 102.153C228.391 100.522 228.782 98.5271 228.394 96.6079C228.006 94.6888 226.871 93.0024 225.24 91.9197C223.609 90.837 221.614 90.4467 219.695 90.8346C219.34 90.9077 218.991 91.0056 218.65 91.1276C216.985 91.7296 215.592 92.9093 214.723 94.4521C213.854 95.995 213.568 97.7984 213.916 99.5344Z" fill="#92EACD"/>
<path d="M229.416 121.507C231.818 120.641 234.074 119.416 236.108 117.872L236.288 117.732C236.508 117.562 236.668 117.327 236.746 117.06C236.825 116.793 236.818 116.509 236.725 116.246C236.677 116.116 236.609 115.993 236.524 115.883C236.308 115.606 235.991 115.425 235.643 115.381C235.294 115.337 234.942 115.433 234.664 115.648C233.406 116.621 232.048 117.457 230.613 118.142L230.378 118.255C227.024 119.827 223.329 120.533 219.631 120.307C217.621 120.182 215.637 119.787 213.732 119.134L213.685 119.119L213.541 119.068C210.769 118.1 208.218 116.591 206.033 114.63C203.849 112.669 202.076 110.293 200.816 107.642C200.483 106.95 200.186 106.241 199.926 105.519C198.799 102.37 198.394 99.0089 198.74 95.6826C199.085 92.3563 200.173 89.15 201.923 86.3003C203.673 83.4505 206.04 81.0299 208.851 79.2171C211.661 77.4043 214.842 76.2454 218.16 75.8261C221.478 75.4067 224.848 75.7375 228.02 76.7941C231.193 77.8506 234.089 79.606 236.493 81.9307C238.897 84.2555 240.748 87.0902 241.911 90.2259C243.073 93.3616 243.517 96.7182 243.209 100.048C243.193 100.222 243.211 100.397 243.262 100.563C243.314 100.73 243.397 100.885 243.509 101.019C243.62 101.153 243.757 101.264 243.911 101.345C244.065 101.427 244.234 101.477 244.407 101.493C244.581 101.509 244.756 101.491 244.922 101.439C245.089 101.388 245.244 101.304 245.378 101.193C245.512 101.082 245.623 100.945 245.704 100.791C245.785 100.637 245.836 100.468 245.852 100.295C246.19 96.6503 245.722 92.9762 244.48 89.5333C244.195 88.7385 243.868 87.9591 243.502 87.1981C240.724 81.4364 235.843 76.9588 229.864 74.6869C223.885 72.415 217.262 72.5218 211.359 74.9852C205.457 77.4486 200.723 82.0813 198.132 87.9295C195.542 93.7777 195.292 100.397 197.434 106.423C197.725 107.23 198.056 108.022 198.427 108.795C201.109 114.368 205.76 118.751 211.482 121.098C217.204 123.446 223.593 123.591 229.416 121.507Z" fill="#92EACD"/>
<path d="M587.523 104.831H6.47711C2.8999 104.831 0 107.731 0 111.308V538.061C0 541.638 2.8999 544.538 6.47711 544.538H587.523C591.1 544.538 594 541.638 594 538.061V111.308C594 107.731 591.1 104.831 587.523 104.831Z" fill="#39B58E"/>
<path d="M553.997 118.503H34.9628C22.9016 118.503 13.124 128.281 13.124 140.342V505.56C13.124 517.622 22.9016 527.399 34.9628 527.399H553.997C566.059 527.399 575.836 517.622 575.836 505.56V140.342C575.836 128.281 566.059 118.503 553.997 118.503Z" fill="#4DC49C"/>
<path d="M548.149 128.848H40.8348C28.7736 128.848 18.9961 138.626 18.9961 150.687V500.119C18.9961 512.181 28.7736 521.958 40.8348 521.958H548.149C560.21 521.958 569.987 512.181 569.987 500.119V150.687C569.987 138.626 560.21 128.848 548.149 128.848Z" fill="#92EACD"/>
<path opacity="0.59" d="M195.213 140.032H188.73C187.975 140.032 187.363 140.644 187.363 141.399V486.208C187.363 486.963 187.975 487.575 188.73 487.575H195.213C195.969 487.575 196.581 486.963 196.581 486.208V141.399C196.581 140.644 195.969 140.032 195.213 140.032Z" fill="white"/>
<path opacity="0.59" d="M390.598 138.157H384.115C383.36 138.157 382.748 138.769 382.748 139.524V484.333C382.748 485.088 383.36 485.7 384.115 485.7H390.598C391.354 485.7 391.966 485.088 391.966 484.333V139.524C391.966 138.769 391.354 138.157 390.598 138.157Z" fill="white"/>
<path d="M557.39 196.464H413.787C411.351 196.464 409.376 198.439 409.376 200.875V278.626C409.376 281.063 411.351 283.038 413.787 283.038H557.39C559.826 283.038 561.801 281.063 561.801 278.626V200.875C561.801 198.439 559.826 196.464 557.39 196.464Z" fill="#39B58E"/>
<path d="M541.606 200.141H427.536C419.324 200.141 412.667 206.798 412.667 215.01V264.492C412.667 272.704 419.324 279.361 427.536 279.361H541.606C549.818 279.361 556.475 272.704 556.475 264.492V215.01C556.475 206.798 549.818 200.141 541.606 200.141Z" fill="#92EACD"/>
<path d="M548.285 220.196H480.873C480.226 220.196 479.701 220.721 479.701 221.368V226.922C479.701 227.569 480.226 228.094 480.873 228.094H548.285C548.932 228.094 549.457 227.569 549.457 226.922V221.368C549.457 220.721 548.932 220.196 548.285 220.196Z" fill="url(#paint0_linear)"/>
<path d="M548.285 237.118H480.873C480.226 237.118 479.701 237.643 479.701 238.29V243.844C479.701 244.491 480.226 245.016 480.873 245.016H548.285C548.932 245.016 549.457 244.491 549.457 243.844V238.29C549.457 237.643 548.932 237.118 548.285 237.118Z" fill="url(#paint1_linear)"/>
<path d="M548.285 253.35H480.873C480.226 253.35 479.701 253.875 479.701 254.522V260.076C479.701 260.723 480.226 261.248 480.873 261.248H548.285C548.932 261.248 549.457 260.723 549.457 260.076V254.522C549.457 253.875 548.932 253.35 548.285 253.35Z" fill="url(#paint2_linear)"/>
<path d="M449.846 208.79H423.564C422.704 208.79 422.008 209.486 422.008 210.346V231.802C422.008 232.662 422.704 233.359 423.564 233.359H449.846C450.705 233.359 451.402 232.662 451.402 231.802V210.346C451.402 209.486 450.705 208.79 449.846 208.79Z" fill="url(#paint3_linear)"/>
<path d="M428.02 220.205C428.273 220.057 428.553 219.961 428.843 219.922C429.134 219.883 429.429 219.903 429.712 219.98C429.995 220.058 430.259 220.19 430.49 220.371C430.721 220.552 430.913 220.777 431.056 221.033L433.885 226.104C433.949 226.219 434.044 226.314 434.158 226.378C434.273 226.442 434.403 226.473 434.534 226.467C434.665 226.461 434.792 226.419 434.901 226.345C435.009 226.272 435.095 226.169 435.149 226.049L442.167 210.424C442.241 210.259 442.369 210.124 442.531 210.043C442.693 209.962 442.878 209.939 443.055 209.979C443.231 210.019 443.389 210.118 443.5 210.261C443.612 210.404 443.67 210.581 443.666 210.762C443.594 215.543 442.324 224.627 434.688 232.231C434.688 232.231 430.48 230.597 427.09 223.154C426.853 222.634 426.818 222.045 426.989 221.501C427.161 220.956 427.528 220.495 428.02 220.205Z" fill="url(#paint4_linear)"/>
<path d="M364.064 194.547H220.462C218.025 194.547 216.05 196.522 216.05 198.958V276.709C216.05 279.145 218.025 281.121 220.462 281.121H364.064C366.5 281.121 368.475 279.145 368.475 276.709V198.958C368.475 196.522 366.5 194.547 364.064 194.547Z" fill="#39B58E"/>
<path d="M348.28 198.224H234.21C225.998 198.224 219.341 204.881 219.341 213.093V262.575C219.341 270.787 225.998 277.444 234.21 277.444H348.28C356.492 277.444 363.149 270.787 363.149 262.575V213.093C363.149 204.881 356.492 198.224 348.28 198.224Z" fill="#92EACD"/>
<path d="M354.956 218.279H287.544C286.897 218.279 286.373 218.804 286.373 219.451V225.005C286.373 225.652 286.897 226.177 287.544 226.177H354.956C355.604 226.177 356.128 225.652 356.128 225.005V219.451C356.128 218.804 355.604 218.279 354.956 218.279Z" fill="url(#paint5_linear)"/>
<path d="M354.956 235.201H287.544C286.897 235.201 286.373 235.726 286.373 236.373V241.927C286.373 242.574 286.897 243.099 287.544 243.099H354.956C355.604 243.099 356.128 242.574 356.128 241.927V236.373C356.128 235.726 355.604 235.201 354.956 235.201Z" fill="url(#paint6_linear)"/>
<path d="M354.956 251.433H287.544C286.897 251.433 286.373 251.958 286.373 252.605V258.159C286.373 258.806 286.897 259.331 287.544 259.331H354.956C355.604 259.331 356.128 258.806 356.128 258.159V252.605C356.128 251.958 355.604 251.433 354.956 251.433Z" fill="url(#paint7_linear)"/>
<path d="M256.52 206.873H230.238C229.378 206.873 228.681 207.569 228.681 208.429V229.885C228.681 230.745 229.378 231.442 230.238 231.442H256.52C257.379 231.442 258.076 230.745 258.076 229.885V208.429C258.076 207.569 257.379 206.873 256.52 206.873Z" fill="url(#paint8_linear)"/>
<path d="M364.507 294.051H220.905C218.469 294.051 216.494 296.026 216.494 298.463V376.214C216.494 378.65 218.469 380.625 220.905 380.625H364.507C366.944 380.625 368.919 378.65 368.919 376.214V298.463C368.919 296.026 366.944 294.051 364.507 294.051Z" fill="#39B58E"/>
<path d="M348.723 297.728H234.653C226.441 297.728 219.784 304.386 219.784 312.598V362.079C219.784 370.291 226.441 376.948 234.653 376.948H348.723C356.935 376.948 363.592 370.291 363.592 362.079V312.598C363.592 304.386 356.935 297.728 348.723 297.728Z" fill="#92EACD"/>
<path d="M355.4 317.784H287.988C287.341 317.784 286.816 318.308 286.816 318.956V324.509C286.816 325.157 287.341 325.681 287.988 325.681H355.4C356.047 325.681 356.572 325.157 356.572 324.509V318.956C356.572 318.308 356.047 317.784 355.4 317.784Z" fill="url(#paint9_linear)"/>
<path d="M355.4 334.706H287.988C287.341 334.706 286.816 335.23 286.816 335.878V341.431C286.816 342.079 287.341 342.603 287.988 342.603H355.4C356.047 342.603 356.572 342.079 356.572 341.431V335.878C356.572 335.23 356.047 334.706 355.4 334.706Z" fill="url(#paint10_linear)"/>
<path d="M355.4 350.938H287.988C287.341 350.938 286.816 351.463 286.816 352.11V357.663C286.816 358.311 287.341 358.835 287.988 358.835H355.4C356.047 358.835 356.572 358.311 356.572 357.663V352.11C356.572 351.463 356.047 350.938 355.4 350.938Z" fill="url(#paint11_linear)"/>
<path d="M256.963 306.377H230.681C229.822 306.377 229.125 307.074 229.125 307.933V329.39C229.125 330.249 229.822 330.946 230.681 330.946H256.963C257.823 330.946 258.52 330.249 258.52 329.39V307.933C258.52 307.074 257.823 306.377 256.963 306.377Z" fill="white"/>
<path d="M170.54 189.467H26.9379C24.5015 189.467 22.5264 191.442 22.5264 193.878V271.629C22.5264 274.065 24.5015 276.04 26.9379 276.04H170.54C172.977 276.04 174.952 274.065 174.952 271.629V193.878C174.952 191.442 172.977 189.467 170.54 189.467Z" fill="#39B58E"/>
<path d="M154.754 193.144H40.6841C32.4721 193.144 25.8149 199.801 25.8149 208.013V257.494C25.8149 265.706 32.4721 272.363 40.6841 272.363H154.754C162.966 272.363 169.623 265.706 169.623 257.494V208.013C169.623 199.801 162.966 193.144 154.754 193.144Z" fill="#92EACD"/>
<path d="M161.433 213.199H94.021C93.3738 213.199 92.8491 213.724 92.8491 214.371V219.925C92.8491 220.572 93.3738 221.096 94.021 221.096H161.433C162.08 221.096 162.605 220.572 162.605 219.925V214.371C162.605 213.724 162.08 213.199 161.433 213.199Z" fill="url(#paint12_linear)"/>
<path d="M161.433 230.121H94.021C93.3738 230.121 92.8491 230.646 92.8491 231.293V236.847C92.8491 237.494 93.3738 238.018 94.021 238.018H161.433C162.08 238.018 162.605 237.494 162.605 236.847V231.293C162.605 230.646 162.08 230.121 161.433 230.121Z" fill="url(#paint13_linear)"/>
<path d="M161.433 246.355H94.021C93.3738 246.355 92.8491 246.88 92.8491 247.527V253.081C92.8491 253.728 93.3738 254.253 94.021 254.253H161.433C162.08 254.253 162.605 253.728 162.605 253.081V247.527C162.605 246.88 162.08 246.355 161.433 246.355Z" fill="url(#paint14_linear)"/>
<path d="M62.9964 201.792H36.7143C35.8549 201.792 35.1582 202.489 35.1582 203.349V224.805C35.1582 225.665 35.8549 226.361 36.7143 226.361H62.9964C63.8558 226.361 64.5525 225.665 64.5525 224.805V203.349C64.5525 202.489 63.8558 201.792 62.9964 201.792Z" fill="url(#paint15_linear)"/>
<path d="M557.39 296.684H413.787C411.351 296.684 409.376 298.659 409.376 301.095V378.846C409.376 381.283 411.351 383.258 413.787 383.258H557.39C559.826 383.258 561.801 381.283 561.801 378.846V301.095C561.801 298.659 559.826 296.684 557.39 296.684Z" fill="#39B58E"/>
<path d="M541.606 300.359H427.536C419.324 300.359 412.667 307.016 412.667 315.228V364.709C412.667 372.921 419.324 379.578 427.536 379.578H541.606C549.818 379.578 556.475 372.921 556.475 364.709V315.228C556.475 307.016 549.818 300.359 541.606 300.359Z" fill="#92EACD"/>
<path d="M548.285 320.416H480.873C480.226 320.416 479.701 320.941 479.701 321.588V327.142C479.701 327.789 480.226 328.314 480.873 328.314H548.285C548.932 328.314 549.457 327.789 549.457 327.142V321.588C549.457 320.941 548.932 320.416 548.285 320.416Z" fill="url(#paint16_linear)"/>
<path d="M548.285 337.338H480.873C480.226 337.338 479.701 337.863 479.701 338.51V344.064C479.701 344.711 480.226 345.236 480.873 345.236H548.285C548.932 345.236 549.457 344.711 549.457 344.064V338.51C549.457 337.863 548.932 337.338 548.285 337.338Z" fill="url(#paint17_linear)"/>
<path d="M548.285 353.57H480.873C480.226 353.57 479.701 354.095 479.701 354.742V360.296C479.701 360.943 480.226 361.468 480.873 361.468H548.285C548.932 361.468 549.457 360.943 549.457 360.296V354.742C549.457 354.095 548.932 353.57 548.285 353.57Z" fill="url(#paint18_linear)"/>
<path d="M449.846 309.008H423.564C422.704 309.008 422.008 309.704 422.008 310.564V332.02C422.008 332.88 422.704 333.576 423.564 333.576H449.846C450.705 333.576 451.402 332.88 451.402 332.02V310.564C451.402 309.704 450.705 309.008 449.846 309.008Z" fill="url(#paint19_linear)"/>
<path d="M513.668 377.12C541.141 373.371 548.654 378.702 548.654 378.702L536.5 400.337C536.5 400.337 509.356 401.235 489.137 387.287C492.566 383.177 494.869 378.717 496.304 375.263C501.857 377.274 507.815 377.911 513.668 377.12Z" fill="url(#paint20_linear)"/>
<path d="M468.322 338.899C468.321 338.71 468.384 338.526 468.499 338.377C468.615 338.227 468.777 338.121 468.96 338.074C469.143 338.027 469.336 338.042 469.509 338.117C469.682 338.192 469.826 338.323 469.916 338.489L473.835 345.817C474.592 347.233 474.896 348.847 474.705 350.441L473.701 354.88C473.574 355.943 473.673 357.022 473.993 358.043C474.313 359.065 474.847 360.007 475.559 360.807C479.007 364.68 486.288 371.705 496.313 375.263C494.871 378.717 492.574 383.177 489.146 387.287C481.715 382.169 475.238 375.055 471.366 365.159C470.575 364.962 469.872 364.508 469.365 363.87C468.859 363.231 468.578 362.442 468.566 361.627L468.322 338.899Z" fill="url(#paint21_linear)"/>
<path d="M558.301 578.808C558.301 578.808 559.935 582.167 559.445 590.998C559.434 591.194 559.384 591.385 559.298 591.56C559.211 591.735 559.09 591.891 558.941 592.017C558.792 592.144 558.619 592.239 558.432 592.297C558.246 592.354 558.049 592.374 557.855 592.353L542.304 590.599C542.159 590.583 542.019 590.532 541.898 590.451C541.776 590.37 541.674 590.262 541.603 590.134C541.531 590.007 541.49 589.864 541.484 589.718C541.478 589.572 541.506 589.427 541.567 589.294C542.784 586.699 546.28 580.435 552.851 577.371L558.301 578.808Z" fill="#39B58E"/>
<path d="M559.647 572.938L557.936 580.214C557.865 580.519 557.693 580.792 557.448 580.989C557.203 581.185 556.899 581.294 556.585 581.296C555.478 581.31 554.373 581.175 553.301 580.895C552.783 580.741 552.335 580.409 552.038 579.956C551.741 579.504 551.614 578.961 551.679 578.424L552.482 571.304L559.647 572.938Z" fill="url(#paint22_linear)"/>
<path d="M519.964 574.14C521.82 577.544 522.736 581.381 522.618 585.256C522.585 585.981 522.267 586.664 521.735 587.156C521.202 587.649 520.496 587.912 519.771 587.888L495.474 587.283C495.226 587.278 494.987 587.193 494.79 587.042C494.594 586.891 494.451 586.681 494.382 586.443C494.313 586.205 494.322 585.951 494.408 585.718C494.494 585.486 494.651 585.286 494.858 585.15C499.529 582.037 508.723 576.233 515.319 574.023L519.964 574.14Z" fill="#39B58E"/>
<path d="M522.049 567.143L519.773 576.22C519.715 576.463 519.61 576.692 519.462 576.893C519.315 577.095 519.13 577.265 518.916 577.395C518.703 577.524 518.466 577.61 518.219 577.647C517.972 577.684 517.721 577.672 517.479 577.611C516.729 577.405 516.019 577.072 515.381 576.628C515.028 576.381 514.756 576.035 514.6 575.634C514.445 575.232 514.412 574.794 514.506 574.373L516.927 563.362L522.049 567.143Z" fill="url(#paint23_linear)"/>
<path d="M570.796 443.082C570.796 443.082 576.672 449.57 577.118 456.627C577.564 463.683 560.181 575.609 560.181 575.609C560.181 575.609 553.537 575.96 550.403 573.542C550.403 573.542 554.649 500.109 553.515 482.892C553.515 482.892 529.102 556.7 523.157 569.865C523.157 569.865 516.788 569.92 514.895 568.495C514.895 568.495 530.11 470.965 537.307 454.132L570.796 443.082Z" fill="url(#paint24_linear)"/>
<path d="M554.052 480.463C553.98 480.462 553.908 480.448 553.84 480.423C553.764 480.394 553.694 480.35 553.635 480.294C553.576 480.238 553.529 480.171 553.495 480.097C553.462 480.022 553.444 479.942 553.442 479.861C553.44 479.779 553.454 479.698 553.484 479.622L557.453 469.305C557.509 469.16 557.618 469.041 557.757 468.971L564.177 465.806C564.324 465.734 564.495 465.722 564.65 465.775C564.806 465.828 564.934 465.941 565.007 466.088C565.079 466.236 565.091 466.406 565.038 466.562C564.985 466.718 564.872 466.846 564.725 466.919L558.523 469.976L554.641 480.066C554.595 480.184 554.514 480.286 554.409 480.357C554.304 480.428 554.179 480.465 554.052 480.463Z" fill="#7D97F4"/>
<path d="M503.35 381.905C514.192 372.579 533.135 369.949 544.013 369.216C546.32 369.056 548.609 369.713 550.48 371.071C552.35 372.43 553.683 374.404 554.244 376.647C557.587 390.083 566.852 425.105 568.731 431.158C570.272 436.123 571.915 440.987 572.977 444.031C573.28 444.903 573.225 445.86 572.825 446.691C572.424 447.523 571.71 448.162 570.839 448.468C561.381 451.782 544.69 454.852 537.933 456.024C537.587 456.083 537.232 456.062 536.896 455.96C536.56 455.859 536.252 455.68 535.997 455.439C535.742 455.198 535.546 454.901 535.426 454.572C535.305 454.242 535.263 453.889 535.303 453.54C535.447 452.269 535.242 450.982 534.711 449.818L514.587 405.729C497.211 421.114 483.509 421.154 473.54 416.235C475.854 411.157 477.62 405.847 478.809 400.394C494.449 399.498 503.35 381.905 503.35 381.905Z" fill="url(#paint25_linear)"/>
<path d="M453.754 394.664L456.938 391.282C465.218 398.452 472.544 400.757 478.805 400.398C477.616 405.851 475.849 411.161 473.536 416.24C460.403 409.758 453.754 394.664 453.754 394.664Z" fill="url(#paint26_linear)"/>
<path d="M455.701 394.951L440.025 393.798L426.561 384.153C428.769 383.092 440.135 387.051 440.135 387.051C440.135 387.051 452.535 386.582 455.845 386.949C458.586 387.255 457.756 391.153 457.389 392.469C457.314 392.736 457.261 392.894 457.261 392.894L455.701 394.951Z" fill="url(#paint27_linear)"/>
<path d="M531.509 348.433L537.479 369.45C537.479 369.45 527.278 374.931 519.737 373.45L517.665 354.918L531.509 348.433Z" fill="url(#paint28_linear)"/>
<path d="M517.861 329.562C517.861 329.562 510.674 341.056 509.352 347.454C508.029 353.853 506.012 357.833 513.279 360.247C520.546 362.661 527.386 359.882 531.749 353.963C531.749 353.963 538.561 344.856 537.971 340.62C537.381 336.385 517.861 329.562 517.861 329.562Z" fill="url(#paint29_linear)"/>
<path d="M529.887 348.961L529.49 348.709C529.369 348.634 529.266 348.535 529.185 348.418C529.104 348.301 529.048 348.169 529.021 348.029C528.994 347.89 528.995 347.746 529.026 347.607C529.057 347.469 529.116 347.338 529.199 347.223C530.556 345.346 533.301 340.994 530.815 339.512C527.609 337.601 514.496 332.825 512.294 327.59C510.171 322.558 513.551 316.975 517.54 315.839C517.667 315.801 517.804 315.813 517.922 315.872C518.041 315.932 518.132 316.035 518.177 316.16L518.4 316.797C518.434 316.893 518.496 316.977 518.578 317.038C518.66 317.099 518.758 317.134 518.86 317.139C518.963 317.144 519.064 317.118 519.151 317.065C519.239 317.012 519.308 316.934 519.351 316.841C519.391 316.751 519.456 316.674 519.539 316.62C519.622 316.566 519.718 316.538 519.817 316.538C519.916 316.538 520.012 316.566 520.095 316.62C520.178 316.674 520.243 316.751 520.283 316.841C520.964 318.412 523.043 321.1 529.337 323.263C538.288 326.335 543.816 330.969 543.018 337.351C543.005 337.442 543.017 337.535 543.053 337.619C543.089 337.704 543.146 337.778 543.22 337.833C543.294 337.887 543.381 337.922 543.472 337.931C543.563 337.941 543.656 337.926 543.739 337.888C544.482 337.574 545.599 337.542 546.869 338.981C549.079 341.484 547.221 346.836 541.003 350.551C540.933 350.591 540.874 350.646 540.83 350.712C540.785 350.779 540.757 350.855 540.748 350.934C540.738 351.014 540.748 351.094 540.775 351.169C540.802 351.244 540.847 351.312 540.905 351.367C541.814 352.171 543.079 353.95 538.888 355.445C534.556 356.99 531.583 356.368 530.458 356.005C530.392 355.984 530.331 355.949 530.279 355.903C530.227 355.857 530.185 355.801 530.155 355.738C530.125 355.676 530.108 355.607 530.106 355.538C530.103 355.468 530.115 355.399 530.14 355.334L532.205 349.927C532.233 349.856 532.244 349.779 532.238 349.703C532.232 349.626 532.209 349.552 532.17 349.486C532.132 349.42 532.079 349.363 532.016 349.32C531.952 349.277 531.88 349.249 531.804 349.237L529.887 348.961Z" fill="#39B58E"/>
<path d="M529.484 350.106C529.484 350.106 532.698 342.556 535.889 345.284C539.079 348.012 532.749 353.81 529.874 353.683L529.484 350.106Z" fill="url(#paint30_linear)"/>
<path d="M425.631 350.348C426.438 349.875 427.33 349.568 428.257 349.445C429.183 349.322 430.125 349.384 431.027 349.63C431.929 349.875 432.773 350.298 433.51 350.874C434.246 351.449 434.86 352.166 435.316 352.982L444.336 369.157C444.539 369.524 444.841 369.828 445.206 370.033C445.572 370.238 445.988 370.337 446.407 370.319C446.826 370.301 447.232 370.167 447.579 369.93C447.926 369.694 448.2 369.366 448.37 368.983L470.748 319.162C471.865 316.678 475.567 317.516 475.525 320.242C475.297 335.481 471.253 364.446 446.905 388.694C446.905 388.694 433.486 383.478 422.68 359.748C421.924 358.093 421.807 356.217 422.352 354.482C422.897 352.746 424.065 351.273 425.631 350.348Z" fill="url(#paint31_linear)"/>
<path opacity="0.59" d="M172.124 133.457H25.3541C23.7924 133.457 22.5264 134.723 22.5264 136.285V165.35C22.5264 166.912 23.7924 168.178 25.3541 168.178H172.124C173.686 168.178 174.952 166.912 174.952 165.35V136.285C174.952 134.723 173.686 133.457 172.124 133.457Z" fill="white"/>
<path opacity="0.59" d="M363.764 134.172H216.995C215.433 134.172 214.167 135.439 214.167 137V166.065C214.167 167.627 215.433 168.893 216.995 168.893H363.764C365.326 168.893 366.592 167.627 366.592 166.065V137C366.592 135.439 365.326 134.172 363.764 134.172Z" fill="white"/>
<path opacity="0.59" d="M556.524 134.172H409.754C408.192 134.172 406.926 135.439 406.926 137V166.065C406.926 167.627 408.192 168.893 409.754 168.893H556.524C558.086 168.893 559.352 167.627 559.352 166.065V137C559.352 135.439 558.086 134.172 556.524 134.172Z" fill="white"/>
<path d="M46.7302 543.565C46.7302 543.565 15.2767 470.905 39.0876 394.356C39.2447 393.855 40.1279 393.951 40.1937 394.477C45.9362 440.775 47.6473 490.916 46.7302 543.565Z" fill="#39B58E"/>
<path opacity="0.59" d="M46.6051 542.037C46.517 542.037 46.4313 542.008 46.3611 541.955C46.291 541.901 46.2402 541.827 46.2166 541.742C40.6375 521.918 38.5145 488.233 37.7248 463.465C36.8607 436.643 37.3214 414.212 37.3257 413.987C37.324 413.933 37.3337 413.88 37.3541 413.83C37.3744 413.78 37.405 413.735 37.4438 413.698C37.4826 413.661 37.5288 413.632 37.5794 413.614C37.63 413.596 37.6839 413.588 37.7375 413.592C37.7906 413.593 37.8429 413.604 37.8916 413.626C37.9402 413.647 37.9842 413.678 38.0209 413.716C38.0576 413.754 38.0864 413.799 38.1055 413.849C38.1247 413.898 38.1338 413.951 38.1324 414.004C38.1324 414.229 37.6696 436.641 38.5336 463.443C39.3297 488.165 41.4442 521.778 47.0021 541.523C47.0166 541.574 47.021 541.628 47.0149 541.68C47.0088 541.733 46.9923 541.784 46.9665 541.83C46.9407 541.877 46.906 541.917 46.8643 541.95C46.8227 541.983 46.775 542.008 46.7239 542.022C46.685 542.032 46.6451 542.037 46.6051 542.037Z" fill="#39B58E"/>
<path d="M53.9332 531.724C53.9332 531.724 34.5019 442.56 71.2225 352.354C71.2703 352.23 71.3601 352.128 71.4761 352.064C71.5921 352 71.7268 351.978 71.8569 352.004C71.9869 352.029 72.1039 352.099 72.1874 352.202C72.2709 352.305 72.3156 352.434 72.3137 352.566C70.333 408.446 63.6627 468.666 53.9332 531.724Z" fill="#39B58E"/>
<path opacity="0.59" d="M54.1349 529.802C54.0343 529.802 53.9373 529.764 53.8631 529.696C53.7889 529.629 53.7427 529.535 53.7337 529.435C49.3604 483.303 65.998 376.819 66.1678 375.747C66.1758 375.694 66.1941 375.644 66.2216 375.599C66.2492 375.553 66.2854 375.514 66.3282 375.483C66.3711 375.452 66.4197 375.429 66.4712 375.417C66.5227 375.405 66.5762 375.403 66.6285 375.411C66.7345 375.428 66.8297 375.486 66.893 375.573C66.9562 375.66 66.9825 375.768 66.966 375.874C66.7962 376.935 50.1735 483.327 54.5362 529.363C54.5462 529.469 54.5136 529.575 54.4456 529.658C54.3775 529.74 54.2795 529.792 54.1731 529.802H54.1349Z" fill="#39B58E"/>
<path d="M57.0159 555.898C57.0159 555.898 47.7068 478.124 93.9552 408.141C94.2566 407.684 95.0994 407.964 95.0166 408.491C86.8582 455.041 73.6046 504.516 57.0159 555.898Z" fill="#39B58E"/>
<path opacity="0.59" d="M57.4683 554.382C57.3612 554.38 57.2592 554.335 57.1848 554.258C57.1104 554.181 57.0696 554.077 57.0713 553.97C57.4959 533.377 65.4336 499.939 72.0254 475.51C79.167 449.056 86.3022 427.179 86.3743 426.963C86.3895 426.911 86.4149 426.862 86.449 426.82C86.4832 426.779 86.5255 426.744 86.5733 426.719C86.6211 426.693 86.6735 426.678 86.7274 426.673C86.7813 426.669 86.8356 426.675 86.887 426.692C86.9384 426.709 86.9859 426.736 87.0266 426.771C87.0674 426.807 87.1006 426.85 87.1243 426.899C87.148 426.947 87.1616 427 87.1644 427.054C87.1673 427.108 87.1592 427.162 87.1407 427.213C87.0707 427.426 79.9397 449.292 72.8045 475.725C66.2234 500.109 58.292 533.479 57.8802 553.985C57.878 554.092 57.8334 554.194 57.7562 554.268C57.679 554.343 57.5755 554.384 57.4683 554.382Z" fill="#39B58E"/>
<path d="M33.4047 512.853H76.1544C79.3537 512.853 81.7484 515.865 81.154 519.009C78.6064 532.52 73.4307 544.455 68.0575 554.439C67.4705 555.539 66.5965 556.46 65.5282 557.104C64.46 557.748 63.2373 558.09 61.9901 558.095H48.0424C46.7809 558.095 45.5426 557.756 44.4569 557.114C43.3713 556.471 42.4781 555.549 41.871 554.443C35.1646 542.238 31.8931 530.127 29.1503 518.277C28.5304 515.547 30.6024 512.853 33.4047 512.853Z" fill="#39B58E"/>
<path d="M389.56 534.804C389.56 534.804 359.245 568.223 333.939 554.097C313.593 542.746 342.499 545.712 367.017 540.349C368.942 539.925 368.437 537.052 366.486 537.311C347.301 539.859 318.03 541.933 312.945 531.93C305.271 516.829 312.714 521.727 336.073 523.909C359.431 526.091 363.932 520.321 348.685 516.729C333.438 513.137 309.181 521.083 303.53 513.693C297.879 506.303 294.792 491.638 292.54 485.331C290.287 479.024 321.624 469.557 330.086 477.839C338.548 486.121 345.435 504.603 355.487 507.985C365.539 511.367 354.725 495.009 348.057 486.571C341.389 478.132 338.748 471.861 352.067 473.873C365.386 475.886 372.426 492.141 373.829 504.276C375.233 516.411 379.926 523.196 379.714 517.194C379.502 511.193 377.322 492.78 373.065 487.246C368.809 481.711 399.19 488.46 389.56 534.804Z" fill="#83CCB2"/>
<path opacity="0.53" d="M387.089 535.125C387.022 535.15 386.948 535.156 386.877 535.143C386.806 535.13 386.74 535.098 386.686 535.05C360.667 512.29 317.032 495.746 316.593 495.581C316.501 495.538 316.429 495.463 316.391 495.37C316.352 495.276 316.351 495.172 316.386 495.078C316.422 494.983 316.492 494.906 316.582 494.861C316.672 494.816 316.776 494.807 316.873 494.835C317.312 494.999 361.083 511.594 387.21 534.452C387.29 534.521 387.339 534.62 387.346 534.725C387.353 534.831 387.318 534.935 387.248 535.014C387.205 535.063 387.15 535.101 387.089 535.125Z" fill="#83CCB2"/>
<path d="M407.858 556.148C407.858 556.148 352.5 557.974 343.321 523.591C335.945 495.956 358.026 523.975 383.701 540.999C385.716 542.336 387.82 539.434 385.924 537.935C367.293 523.196 340.452 499.166 344.928 486.135C351.683 466.468 353.725 477.219 371.757 499.671C389.79 522.124 398.719 521.168 388.862 504.658C379.005 488.148 351.275 473.548 352.963 462.257C354.651 450.965 364.941 435.709 368.577 428.334C372.214 420.959 407.323 440.496 407.259 455.036C407.196 469.576 396.776 491.432 402.389 503.176C408.002 514.92 413.178 491.422 414.915 478.338C416.651 465.254 419.931 457.565 429.535 471.026C439.14 484.488 430.824 504.582 421.326 516.186C411.828 527.79 409.862 537.723 414.957 532.407C420.052 527.091 434.435 509.443 435.679 500.962C436.923 492.481 456.945 525.049 407.858 556.148Z" fill="#39B58E"/>
<path opacity="0.53" d="M405.468 554.246C405.387 554.208 405.317 554.148 405.268 554.073C405.219 553.998 405.191 553.911 405.188 553.821C403.026 511.439 380.332 458.834 380.103 458.308C380.059 458.19 380.062 458.061 380.112 457.945C380.161 457.83 380.252 457.738 380.367 457.688C380.482 457.638 380.612 457.634 380.73 457.677C380.847 457.719 380.944 457.805 381.001 457.917C381.23 458.446 403.994 511.203 406.164 553.77C406.167 553.835 406.158 553.899 406.137 553.959C406.115 554.02 406.082 554.076 406.039 554.123C405.996 554.171 405.944 554.21 405.886 554.237C405.828 554.265 405.765 554.281 405.701 554.284C405.622 554.29 405.541 554.277 405.468 554.246Z" fill="#39B58E"/>
<path d="M341.696 245.771H174.069C171.632 245.771 169.657 247.747 169.657 250.183V341.58C169.657 344.016 171.632 345.991 174.069 345.991H341.696C344.133 345.991 346.108 344.016 346.108 341.58V250.183C346.108 247.747 344.133 245.771 341.696 245.771Z" fill="url(#paint32_linear)"/>
<path d="M335.529 250.028H177.877C175.441 250.028 173.466 252.003 173.466 254.439V337.323C173.466 339.76 175.441 341.735 177.877 341.735H335.529C337.966 341.735 339.941 339.76 339.941 337.323V254.439C339.941 252.003 337.966 250.028 335.529 250.028Z" fill="url(#paint33_linear)"/>
<path d="M330.643 273.244H252.236C251.589 273.244 251.064 273.769 251.064 274.416V281.214C251.064 281.861 251.589 282.386 252.236 282.386H330.643C331.29 282.386 331.814 281.861 331.814 281.214V274.416C331.814 273.769 331.29 273.244 330.643 273.244Z" fill="white"/>
<path d="M330.643 292.835H252.236C251.589 292.835 251.064 293.36 251.064 294.007V300.805C251.064 301.452 251.589 301.976 252.236 301.976H330.643C331.29 301.976 331.814 301.452 331.814 300.805V294.007C331.814 293.36 331.29 292.835 330.643 292.835Z" fill="white"/>
<path d="M330.643 311.625H252.236C251.589 311.625 251.064 312.15 251.064 312.797V319.595C251.064 320.242 251.589 320.767 252.236 320.767H330.643C331.29 320.767 331.814 320.242 331.814 319.595V312.797C331.814 312.15 331.29 311.625 330.643 311.625Z" fill="white"/>
<path d="M216.75 260.04H185.836C184.977 260.04 184.28 260.736 184.28 261.596V286.925C184.28 287.784 184.977 288.481 185.836 288.481H216.75C217.61 288.481 218.307 287.784 218.307 286.925V261.596C218.307 260.736 217.61 260.04 216.75 260.04Z" fill="white"/>
<path d="M169.927 322.459L170.088 317.085L164.473 305.938C163.966 304.932 163.701 303.822 163.697 302.695C163.693 301.569 163.952 300.457 164.452 299.448L170.821 286.604C170.821 286.604 174.493 314.481 175.459 316.797C176.425 319.113 172.84 323.276 172.84 323.276L169.927 322.459Z" fill="url(#paint34_linear)"/>
<path d="M123.449 317.754C123.449 317.754 117.446 320.673 116.342 324.027C115.457 326.719 108.818 327.068 108.162 332.36C107.822 335.094 105.801 337.283 103.08 337.699C96.2991 338.739 85.85 342.259 84.1856 354.031C82.9118 363.015 87.4889 366.423 92.2974 367.601C95.8278 368.467 98.1737 371.902 97.4604 375.466C96.7747 378.884 97.7958 382.837 103.719 385.962C116.991 392.968 130.256 369.369 130.256 369.369L132.971 328.171L123.449 317.754Z" fill="#39B58E"/>
<path d="M169.927 322.459C169.927 322.459 171.139 358.184 139.747 357.137C139.747 357.137 149.432 372.94 154.487 373.898C154.487 373.898 186.603 362.75 175.451 316.79L169.927 322.459Z" fill="url(#paint35_linear)"/>
<path d="M68.8917 576.087L68.0425 583.148C67.1466 586.502 62.8285 594.958 57.2834 594.399C53.8718 594.06 53.4621 584.094 53.9355 582.598C54.8038 579.874 56.3875 575.781 58.6739 573.374H66.5055C66.8471 573.375 67.1846 573.448 67.4956 573.589C67.8067 573.73 68.0842 573.936 68.3098 574.193C68.5354 574.449 68.704 574.751 68.8043 575.077C68.9046 575.404 68.9344 575.748 68.8917 576.087Z" fill="#39B58E"/>
<path d="M130.241 493.381L131.561 501.157C131.561 501.157 127.135 546 126.347 563.939C126.228 566.752 126.957 569.536 128.438 571.93L136.136 584.432L116.571 572.888L116.183 570.499L119.384 566.096L115.189 515.861C114.942 512.909 115.552 509.949 116.945 507.335L120.991 499.733L130.241 493.381Z" fill="url(#paint36_linear)"/>
<path d="M137.414 586.232H131.171C130.596 586.232 130.03 586.1 129.515 585.846C128.999 585.593 128.549 585.224 128.199 584.77C126.252 582.241 122.218 577.305 120.291 577.178C117.694 577.004 118.028 586.232 118.028 586.232H116.571L114.728 574.769C114.503 573.362 114.726 571.92 115.365 570.647C116.005 569.373 117.028 568.333 118.291 567.674C118.291 567.674 118.883 572.062 122.101 574.004C125.32 575.947 135.194 582.895 135.194 582.895C136.042 582.796 136.9 582.819 137.741 582.963C139.69 583.315 139.416 586.232 137.414 586.232Z" fill="#39B58E"/>
<path d="M103.443 497.069C103.443 497.069 77.5067 546.266 73.384 557.494C69.2612 568.722 67.8176 578.097 67.7624 578.985C67.6754 580.371 65.9515 581.7 61.1961 581.7C58.7441 581.7 57.5425 580.717 56.9502 579.766C56.7063 579.364 56.5686 578.907 56.55 578.437C56.5314 577.967 56.6326 577.5 56.8441 577.08C58.345 574.045 63.1068 564.343 64.8688 559.942C66.9748 554.688 71.503 530.874 73.9869 522.595C76.4707 514.315 79.2773 505.335 90.0937 497.064C90.0979 497.069 97.5218 489.795 103.443 497.069Z" fill="url(#paint37_linear)"/>
<path d="M119.828 416.456C123.626 400.36 119.804 388.234 115.794 380.759C115.03 379.349 114.554 377.802 114.395 376.206C114.236 374.611 114.397 373 114.867 371.468C115.338 369.935 116.109 368.512 117.136 367.28C118.163 366.049 119.425 365.035 120.849 364.298C130.232 359.415 139.743 357.137 139.743 357.137C139.743 357.137 158.336 370.724 156.13 381.368C154.837 387.603 143.061 418.719 143.061 418.719C143.061 418.719 132.177 423.872 119.828 416.456Z" fill="url(#paint38_linear)"/>
<path d="M104.995 430.491C107.716 422.288 119.828 416.456 119.828 416.456C132.177 423.872 143.065 418.719 143.065 418.719C143.065 418.719 145.507 428.06 143.821 436.728C142.135 445.396 131.561 501.151 131.561 501.151C114.9 504.527 89.2742 497.754 89.2742 497.754C99.8868 478.911 102.271 438.692 104.995 430.491Z" fill="#39B58E"/>
<path d="M127.589 338.406L122.148 362.839C121.628 364.99 123.59 364.637 125.757 364.228C129.321 363.557 133.913 362.172 135.448 359.4C135.597 359.113 135.691 358.8 135.726 358.479L138.062 341.537C138.152 340.883 138.027 340.217 137.705 339.64C137.384 339.063 136.884 338.606 136.28 338.338L131.769 336.338C131.362 336.16 130.921 336.073 130.477 336.083C130.032 336.093 129.596 336.201 129.197 336.398C128.799 336.595 128.448 336.877 128.171 337.224C127.893 337.571 127.694 337.974 127.589 338.406Z" fill="url(#paint39_linear)"/>
<path d="M133.975 315.139C133.975 315.139 140.416 317.858 144.802 327.167C149.188 336.476 145.912 340.775 141.804 341.366C137.696 341.956 131.55 341.864 125.05 335.846C118.549 329.827 125.6 311.914 133.975 315.139Z" fill="url(#paint40_linear)"/>
<path d="M129.413 330.882C129.413 330.882 124.553 317.262 136.631 317.102L139.477 319.087C139.477 319.087 143.908 311.536 136.637 307.931C129.366 304.327 120.855 307.294 117.76 317.102C114.664 326.91 114.136 333.449 119.286 338.143C124.436 342.837 126.555 337.506 126.555 337.506C126.555 337.506 123.751 333.122 124.893 330.776C126.035 328.43 128.667 331.26 128.667 331.26L129.413 330.882Z" fill="#39B58E"/>
<path d="M128.058 332.398C128.058 332.398 125.602 325.392 122.326 328.178C119.051 330.963 124.991 334.657 127.317 335.852L128.058 332.398Z" fill="url(#paint41_linear)"/>
<path d="M192.57 350.295C192.57 350.295 176.109 387.255 123.534 367.316C120.07 366.002 116.596 369.753 116.316 373.447L116.161 375.445C116.062 376.706 116.232 377.974 116.661 379.164C117.09 380.354 117.768 381.439 118.649 382.347C119.53 383.255 120.595 383.964 121.772 384.428C122.949 384.891 124.211 385.099 125.475 385.037C144.674 384.064 172.252 395.288 196.479 362.746L192.57 350.295Z" fill="url(#paint42_linear)"/>
<path d="M196.47 362.75C196.47 362.75 199.23 354.653 199.911 349.588C200.593 344.522 198.058 333.169 195.878 329.976C193.698 326.783 193.33 334.61 192.341 338.289C191.352 341.968 193.025 347.218 193.025 347.218L192.018 354.099L196.47 362.75Z" fill="url(#paint43_linear)"/>
<defs>
<linearGradient id="paint0_linear" x1="479.701" y1="224.145" x2="549.457" y2="224.145" gradientUnits="userSpaceOnUse">
<stop stop-color="#DAE3FE"/>
<stop offset="1" stop-color="#E9EFFD"/>
</linearGradient>
<linearGradient id="paint1_linear" x1="189908" y1="12797.8" x2="212829" y2="12797.8" gradientUnits="userSpaceOnUse">
<stop stop-color="#DAE3FE"/>
<stop offset="1" stop-color="#E9EFFD"/>
</linearGradient>
<linearGradient id="paint2_linear" x1="189908" y1="13417.9" x2="212829" y2="13417.9" gradientUnits="userSpaceOnUse">
<stop stop-color="#DAE3FE"/>
<stop offset="1" stop-color="#E9EFFD"/>
</linearGradient>
<linearGradient id="paint3_linear" x1="72256.9" y1="36971.4" x2="76326.9" y2="36971.4" gradientUnits="userSpaceOnUse">
<stop stop-color="#DAE3FE"/>
<stop offset="1" stop-color="#E9EFFD"/>
</linearGradient>
<linearGradient id="paint4_linear" x1="470.143" y1="160.718" x2="396.887" y2="285.751" gradientUnits="userSpaceOnUse">
<stop stop-color="#E1473D"/>
<stop offset="1" stop-color="#E9605A"/>
</linearGradient>
<linearGradient id="paint5_linear" x1="126191" y1="12078.1" x2="149112" y2="12078.1" gradientUnits="userSpaceOnUse">
<stop stop-color="#DAE3FE"/>
<stop offset="1" stop-color="#E9EFFD"/>
</linearGradient>
<linearGradient id="paint6_linear" x1="126191" y1="12724.6" x2="149112" y2="12724.6" gradientUnits="userSpaceOnUse">
<stop stop-color="#DAE3FE"/>
<stop offset="1" stop-color="#E9EFFD"/>
</linearGradient>
<linearGradient id="paint7_linear" x1="126191" y1="13344.6" x2="149112" y2="13344.6" gradientUnits="userSpaceOnUse">
<stop stop-color="#DAE3FE"/>
<stop offset="1" stop-color="#E9EFFD"/>
</linearGradient>
<linearGradient id="paint8_linear" x1="45295.8" y1="36747.6" x2="49365.7" y2="36747.6" gradientUnits="userSpaceOnUse">
<stop stop-color="#DAE3FE"/>
<stop offset="1" stop-color="#E9EFFD"/>
</linearGradient>
<linearGradient id="paint9_linear" x1="126338" y1="15879.2" x2="149258" y2="15879.2" gradientUnits="userSpaceOnUse">
<stop stop-color="#DAE3FE"/>
<stop offset="1" stop-color="#E9EFFD"/>
</linearGradient>
<linearGradient id="paint10_linear" x1="126338" y1="16525.7" x2="149258" y2="16525.7" gradientUnits="userSpaceOnUse">
<stop stop-color="#DAE3FE"/>
<stop offset="1" stop-color="#E9EFFD"/>
</linearGradient>
<linearGradient id="paint11_linear" x1="126338" y1="17145.7" x2="149258" y2="17145.7" gradientUnits="userSpaceOnUse">
<stop stop-color="#DAE3FE"/>
<stop offset="1" stop-color="#E9EFFD"/>
</linearGradient>
<linearGradient id="paint12_linear" x1="62409.8" y1="11884.1" x2="85330.1" y2="11884.1" gradientUnits="userSpaceOnUse">
<stop stop-color="#DAE3FE"/>
<stop offset="1" stop-color="#E9EFFD"/>
</linearGradient>
<linearGradient id="paint13_linear" x1="62409.8" y1="12530.5" x2="85330.1" y2="12530.5" gradientUnits="userSpaceOnUse">
<stop stop-color="#DAE3FE"/>
<stop offset="1" stop-color="#E9EFFD"/>
</linearGradient>
<linearGradient id="paint14_linear" x1="62409.8" y1="13150.6" x2="85330.1" y2="13150.6" gradientUnits="userSpaceOnUse">
<stop stop-color="#DAE3FE"/>
<stop offset="1" stop-color="#E9EFFD"/>
</linearGradient>
<linearGradient id="paint15_linear" x1="18306.9" y1="36154.6" x2="22376.9" y2="36154.6" gradientUnits="userSpaceOnUse">
<stop stop-color="#DAE3FE"/>
<stop offset="1" stop-color="#E9EFFD"/>
</linearGradient>
<linearGradient id="paint16_linear" x1="189908" y1="15979.7" x2="212829" y2="15979.7" gradientUnits="userSpaceOnUse">
<stop stop-color="#DAE3FE"/>
<stop offset="1" stop-color="#E9EFFD"/>
</linearGradient>
<linearGradient id="paint17_linear" x1="189908" y1="16626.2" x2="212829" y2="16626.2" gradientUnits="userSpaceOnUse">
<stop stop-color="#DAE3FE"/>
<stop offset="1" stop-color="#E9EFFD"/>
</linearGradient>
<linearGradient id="paint18_linear" x1="189908" y1="17246.2" x2="212829" y2="17246.2" gradientUnits="userSpaceOnUse">
<stop stop-color="#DAE3FE"/>
<stop offset="1" stop-color="#E9EFFD"/>
</linearGradient>
<linearGradient id="paint19_linear" x1="72256.9" y1="48670.1" x2="76326.9" y2="48670.1" gradientUnits="userSpaceOnUse">
<stop stop-color="#DAE3FE"/>
<stop offset="1" stop-color="#E9EFFD"/>
</linearGradient>
<linearGradient id="paint20_linear" x1="169303" y1="44167" x2="170560" y2="68155.2" gradientUnits="userSpaceOnUse">
<stop stop-color="#E1473D"/>
<stop offset="1" stop-color="#E9605A"/>
</linearGradient>
<linearGradient id="paint21_linear" x1="495.317" y1="364.352" x2="468.326" y2="365.702" gradientUnits="userSpaceOnUse">
<stop stop-color="#FEBBBA"/>
<stop offset="1" stop-color="#FF928E"/>
</linearGradient>
<linearGradient id="paint22_linear" x1="24024.5" y1="31003.1" x2="23752.6" y2="30972.8" gradientUnits="userSpaceOnUse">
<stop stop-color="#FEBBBA"/>
<stop offset="1" stop-color="#FF928E"/>
</linearGradient>
<linearGradient id="paint23_linear" x1="22560.3" y1="39861.5" x2="22300.4" y2="39851.1" gradientUnits="userSpaceOnUse">
<stop stop-color="#FEBBBA"/>
<stop offset="1" stop-color="#FF928E"/>
</linearGradient>
<linearGradient id="paint24_linear" x1="590.837" y1="403.995" x2="525.811" y2="575.227" gradientUnits="userSpaceOnUse">
<stop stop-color="#4F52FF"/>
<stop offset="1" stop-color="#4042E2"/>
</linearGradient>
<linearGradient id="paint25_linear" x1="632.827" y1="284.488" x2="582.729" y2="349.613" gradientUnits="userSpaceOnUse">
<stop stop-color="#FF928E"/>
<stop offset="1" stop-color="#FE7062"/>
</linearGradient>
<linearGradient id="paint26_linear" x1="64821.4" y1="52149.9" x2="70662.6" y2="61372.6" gradientUnits="userSpaceOnUse">
<stop stop-color="#FEBBBA"/>
<stop offset="1" stop-color="#FF928E"/>
</linearGradient>
<linearGradient id="paint27_linear" x1="83318.6" y1="29712.4" x2="84289.1" y2="35552.9" gradientUnits="userSpaceOnUse">
<stop stop-color="#FEBBBA"/>
<stop offset="1" stop-color="#FF928E"/>
</linearGradient>
<linearGradient id="paint28_linear" x1="56613.9" y1="46523.7" x2="62851.4" y2="58047.1" gradientUnits="userSpaceOnUse">
<stop stop-color="#FEBBBA"/>
<stop offset="1" stop-color="#FF928E"/>
</linearGradient>
<linearGradient id="paint29_linear" x1="-176458" y1="37520.5" x2="-172467" y2="41457.5" gradientUnits="userSpaceOnUse">
<stop stop-color="#FEBBBA"/>
<stop offset="1" stop-color="#FF928E"/>
</linearGradient>
<linearGradient id="paint30_linear" x1="-42317.7" y1="11891.7" x2="-41227.1" y2="12819.5" gradientUnits="userSpaceOnUse">
<stop stop-color="#FEBBBA"/>
<stop offset="1" stop-color="#FF928E"/>
</linearGradient>
<linearGradient id="paint31_linear" x1="142545" y1="132589" x2="109239" y2="197976" gradientUnits="userSpaceOnUse">
<stop stop-color="#E1473D"/>
<stop offset="1" stop-color="#E9605A"/>
</linearGradient>
<linearGradient id="paint32_linear" x1="337100" y1="92203.6" x2="332961" y2="120632" gradientUnits="userSpaceOnUse">
<stop stop-color="#FF928E"/>
<stop offset="1" stop-color="#FE7062"/>
</linearGradient>
<linearGradient id="paint33_linear" x1="276569" y1="136019" x2="277593" y2="275561" gradientUnits="userSpaceOnUse">
<stop stop-color="#FF928E"/>
<stop offset="1" stop-color="#FE7062"/>
</linearGradient>
<linearGradient id="paint34_linear" x1="5677.38" y1="69183.6" x2="-5361.62" y2="77290.7" gradientUnits="userSpaceOnUse">
<stop stop-color="#FEBBBA"/>
<stop offset="1" stop-color="#FF928E"/>
</linearGradient>
<linearGradient id="paint35_linear" x1="19571.8" y1="108763" x2="7554.48" y2="126845" gradientUnits="userSpaceOnUse">
<stop stop-color="#FEBBBA"/>
<stop offset="1" stop-color="#FF928E"/>
</linearGradient>
<linearGradient id="paint36_linear" x1="6203.41" y1="316088" x2="-29576.6" y2="219637" gradientUnits="userSpaceOnUse">
<stop stop-color="#FEBBBA"/>
<stop offset="1" stop-color="#FF928E"/>
</linearGradient>
<linearGradient id="paint37_linear" x1="4432.12" y1="306605" x2="-12121.8" y2="203348" gradientUnits="userSpaceOnUse">
<stop stop-color="#FEBBBA"/>
<stop offset="1" stop-color="#FF928E"/>
</linearGradient>
<linearGradient id="paint38_linear" x1="81674.2" y1="94372.3" x2="69005.5" y2="102261" gradientUnits="userSpaceOnUse">
<stop stop-color="#FF928E"/>
<stop offset="1" stop-color="#FE7062"/>
</linearGradient>
<linearGradient id="paint39_linear" x1="4873.07" y1="65406.5" x2="3938.99" y2="61555.8" gradientUnits="userSpaceOnUse">
<stop stop-color="#FEBBBA"/>
<stop offset="1" stop-color="#FF928E"/>
</linearGradient>
<linearGradient id="paint40_linear" x1="8674.3" y1="56842.9" x2="3955.15" y2="49216.6" gradientUnits="userSpaceOnUse">
<stop stop-color="#FEBBBA"/>
<stop offset="1" stop-color="#FF928E"/>
</linearGradient>
<linearGradient id="paint41_linear" x1="2034.87" y1="18031.7" x2="498.442" y2="15833.8" gradientUnits="userSpaceOnUse">
<stop stop-color="#FEBBBA"/>
<stop offset="1" stop-color="#FF928E"/>
</linearGradient>
<linearGradient id="paint42_linear" x1="75676.6" y1="85112.8" x2="95994.1" y2="53935.8" gradientUnits="userSpaceOnUse">
<stop stop-color="#FEBBBA"/>
<stop offset="1" stop-color="#FF928E"/>
</linearGradient>
<linearGradient id="paint43_linear" x1="7794.44" y1="80036.3" x2="14409.3" y2="78954.7" gradientUnits="userSpaceOnUse">
<stop stop-color="#FEBBBA"/>
<stop offset="1" stop-color="#FF928E"/>
</linearGradient>
</defs>
</svg>
