<svg width="43" height="43" viewBox="0 0 43 43" fill="none" xmlns="http://www.w3.org/2000/svg">
<path d="M13.9879 24.3254L13.0059 27.9913L9.41666 28.0672C8.34402 26.0777 7.7356 23.8015 7.7356 21.3826C7.7356 19.0435 8.30445 16.8377 9.3128 14.8954H9.31357L12.509 15.4813L13.9087 18.6575C13.6158 19.5116 13.4561 20.4285 13.4561 21.3826C13.4562 22.418 13.6438 23.4101 13.9879 24.3254Z" fill="#FBBB00"/>
<path d="M35.7006 18.7474C35.8626 19.6007 35.9471 20.4819 35.9471 21.3826C35.9471 22.3925 35.8409 23.3775 35.6386 24.3278C34.952 27.5612 33.1577 30.3847 30.6722 32.3827L30.6714 32.382L26.6466 32.1766L26.077 28.6207C27.7263 27.6535 29.0152 26.1398 29.6942 24.3278H22.1514V18.7474H29.8042H35.7006Z" fill="#518EF8"/>
<path d="M30.6714 32.3819L30.6722 32.3827C28.2549 34.3257 25.1841 35.4883 21.8414 35.4883C16.4696 35.4883 11.7992 32.4858 9.41669 28.0673L13.9879 24.3254C15.1791 27.5046 18.246 29.7678 21.8414 29.7678C23.3868 29.7678 24.8346 29.35 26.077 28.6207L30.6714 32.3819Z" fill="#28B446"/>
<path d="M30.845 10.5242L26.2754 14.2653C24.9896 13.4616 23.4697 12.9973 21.8414 12.9973C18.1646 12.9973 15.0403 15.3643 13.9088 18.6575L9.31358 14.8954H9.31281C11.6604 10.3692 16.3897 7.27679 21.8414 7.27679C25.2639 7.27679 28.4021 8.49595 30.845 10.5242Z" fill="#F14336"/>
<circle cx="21.7294" cy="21.2706" r="20.7706" stroke="#39B58E"/>
</svg>
