<svg width="22" height="22" viewBox="0 0 22 22" fill="none" xmlns="http://www.w3.org/2000/svg">
<path d="M21.934 6.46483C21.8805 5.29392 21.6945 4.4943 21.4226 3.79471C21.1465 3.06071 20.7134 2.39586 20.1538 1.84633C19.6045 1.28672 18.9395 0.853507 18.2055 0.577229C17.5057 0.305483 16.7062 0.119676 15.5353 0.0664678C14.3622 0.0127564 13.9874 0 11.0001 0C8.01273 0 7.63792 0.0127564 6.46483 0.0661321C5.29392 0.119676 4.49446 0.305651 3.79471 0.577565C3.06071 0.853675 2.39586 1.28672 1.84633 1.84633C1.28672 2.39569 0.853507 3.06054 0.577229 3.79454C0.305483 4.4943 0.119676 5.29392 0.0664678 6.46466C0.0127564 7.63792 0 8.01256 0 10.9999C0 13.9874 0.0127564 14.3622 0.0664678 15.5353C0.119843 16.7061 0.305819 17.5057 0.577733 18.2055C0.853843 18.9393 1.28689 19.6043 1.8465 20.1537C2.39586 20.7133 3.06088 21.1463 3.79487 21.4224C4.49446 21.6945 5.29409 21.8803 6.465 21.9339C7.63826 21.9874 8.01289 22 11.0003 22C13.9876 22 14.3624 21.9874 15.5355 21.9339C16.7064 21.8803 17.5059 21.6945 18.2056 21.4224C19.6832 20.8511 20.8512 19.683 21.4226 18.2055C21.6947 17.5057 21.8805 16.7061 21.934 15.5353C21.9874 14.3621 22.0002 13.9874 22.0002 11.0001C22.0002 8.01256 21.9874 7.63792 21.934 6.46483ZM19.9539 15.4452C19.9051 16.5177 19.7258 17.1002 19.5753 17.4877C19.2052 18.4472 18.447 19.2053 17.4876 19.5754C17.1 19.726 16.5176 19.9053 15.445 19.9541C14.2854 20.0071 13.9374 20.0182 11.0001 20.0182C8.06258 20.0182 7.7148 20.0071 6.55497 19.9541C5.48259 19.9053 4.90015 19.726 4.51242 19.5754C4.03473 19.399 3.60252 19.1179 3.24769 18.7525C2.88229 18.3976 2.60114 17.9656 2.42473 17.4877C2.27417 17.1002 2.09491 16.5177 2.04607 15.4452C1.99319 14.2854 1.98195 13.9374 1.98195 11.0003C1.98195 8.06291 1.99319 7.71513 2.04607 6.55513C2.09508 5.48259 2.27417 4.90015 2.42473 4.51259C2.60114 4.03473 2.88245 3.60252 3.24769 3.24769C3.60252 2.88229 4.03473 2.60114 4.51259 2.4249C4.90015 2.27417 5.48259 2.09508 6.55513 2.04607C7.71496 1.99319 8.06291 1.98195 11.0001 1.98195H10.9999C13.9371 1.98195 14.285 1.99319 15.445 2.04623C16.5176 2.09508 17.0998 2.27434 17.4876 2.4249C17.9653 2.60131 18.3975 2.88245 18.7523 3.24769C19.1177 3.60252 19.3989 4.03473 19.5751 4.51259C19.7258 4.90015 19.9051 5.48259 19.9539 6.55513C20.0068 7.71496 20.0181 8.06291 20.0181 11.0001C20.0181 13.9374 20.007 14.2852 19.9539 15.4452Z" fill="url(#paint0_linear)"/>
<path d="M10.9998 5.35132C7.88016 5.35132 5.3512 7.88045 5.3512 11.0001C5.3512 14.1197 7.88016 16.6487 10.9998 16.6487C14.1196 16.6487 16.6485 14.1197 16.6485 11.0001C16.6485 7.88045 14.1196 5.35132 10.9998 5.35132ZM10.9998 14.6667C8.97487 14.6665 7.33315 13.025 7.33331 10.9999C7.33331 8.97499 8.97487 7.33327 11 7.33327C13.025 7.33343 14.6666 8.97499 14.6666 10.9999C14.6666 13.025 13.0249 14.6667 10.9998 14.6667Z" fill="url(#paint1_linear)"/>
<path d="M18.1917 5.12826C18.1917 5.85722 17.6007 6.44822 16.8718 6.44822C16.1426 6.44822 15.5516 5.85722 15.5516 5.12826C15.5516 4.39913 16.1426 3.80814 16.8718 3.80814C17.6007 3.80814 18.1917 4.39913 18.1917 5.12826Z" fill="url(#paint2_linear)"/>
<defs>
<linearGradient id="paint0_linear" x1="1.84622" y1="20.1538" x2="20.1539" y2="1.84604" gradientUnits="userSpaceOnUse">
<stop stop-color="#FFD600"/>
<stop offset="0.5" stop-color="#FF0100"/>
<stop offset="1" stop-color="#D800B9"/>
</linearGradient>
<linearGradient id="paint1_linear" x1="7.00567" y1="14.9942" x2="14.9941" y2="7.00579" gradientUnits="userSpaceOnUse">
<stop stop-color="#FF6400"/>
<stop offset="0.5" stop-color="#FF0100"/>
<stop offset="1" stop-color="#FD0056"/>
</linearGradient>
<linearGradient id="paint2_linear" x1="15.9383" y1="6.06155" x2="17.8051" y2="4.19482" gradientUnits="userSpaceOnUse">
<stop stop-color="#F30072"/>
<stop offset="1" stop-color="#E50097"/>
</linearGradient>
</defs>
</svg>
