<svg width="27" height="22" viewBox="0 0 27 22" fill="none" xmlns="http://www.w3.org/2000/svg">
<path d="M27 2.60446C25.9959 3.04615 24.9261 3.33892 23.8106 3.48108C24.9581 2.794 25.8339 1.71431 26.2457 0.412923C25.1758 1.05262 23.9946 1.50446 22.7357 1.75662C21.7198 0.671846 20.2719 0 18.6924 0C15.6279 0 13.1608 2.49446 13.1608 5.55246C13.1608 5.99246 13.1979 6.41554 13.2891 6.81831C8.68725 6.59323 4.61531 4.38138 1.87987 1.012C1.40231 1.84292 1.12219 2.794 1.12219 3.81785C1.12219 5.74031 2.10938 7.44446 3.58087 8.43108C2.69156 8.41415 1.81912 8.15523 1.08 7.74739C1.08 7.76431 1.08 7.78631 1.08 7.80831C1.08 10.5058 2.99869 12.7465 5.51475 13.2626C5.06419 13.3862 4.57312 13.4454 4.0635 13.4454C3.70913 13.4454 3.35137 13.4251 3.01556 13.3506C3.73275 15.5489 5.76788 17.1651 8.18775 17.2175C6.3045 18.6949 3.91331 19.5851 1.32469 19.5851C0.87075 19.5851 0.435375 19.5648 0 19.5089C2.45194 21.0946 5.35781 22 8.4915 22C18.6772 22 24.246 13.5385 24.246 6.204C24.246 5.95862 24.2376 5.72169 24.2257 5.48646C25.3243 4.70462 26.2474 3.72815 27 2.60446Z" fill="#03A9F4"/>
</svg>
